<svg version="1.1" id="Layer_1" xmlns="http://www.w3.org/2000/svg" x="0" y="0" width="100" height="100" xml:space="preserve"><path fill-rule="evenodd" clip-rule="evenodd" d="M59.999 65.64h-1a9.005 9.005 0 0 0-.943-4h1.943a7.999 7.999 0 1 0 0-15.997c-1.6 0-3.083.481-4.334 1.29-1.231-5.316-5.973-9.289-11.664-9.289-6.627 0-11.998 5.372-11.998 11.998 0 5.953 4.339 10.879 10.023 11.822a8.997 8.997 0 0 0-1.012 3.887c-7.406-1.399-13.012-7.895-13.012-15.709 0-8.835 7.162-15.998 15.998-15.998 6.004 0 11.229 3.312 13.965 8.204.664-.114 1.337-.205 2.033-.205 6.627 0 11.998 5.372 11.998 11.999S66.626 65.64 59.999 65.64zm-9.998-7.071 3.535 3.535a4.998 4.998 0 1 1-7.07 7.07 4.998 4.998 0 0 1 0-7.07l3.535-3.535z"/></svg>