<svg version="1.1" id="Layer_1" xmlns="http://www.w3.org/2000/svg" x="0" y="0" width="100" height="100" xml:space="preserve"><path fill-rule="evenodd" clip-rule="evenodd" d="M79.941 43.642h-4a2 2 0 0 1 0-4h4a2 2 0 0 1 0 4zM72.084 30.33a2 2 0 1 1-2.828-2.828l2.828-2.828a2 2 0 1 1 2.828 2.828l-2.828 2.828zm-2.947 15.607a11.938 11.938 0 0 1 2.805 7.704c0 5.223-3.342 9.652-7.998 11.301v-4.381a7.988 7.988 0 0 0 4-6.92 8 8 0 0 0-8-7.999c-1.6 0-3.084.48-4.334 1.291-1.23-5.317-5.973-9.29-11.664-9.29-6.627 0-11.998 5.372-11.998 11.998 0 3.55 1.551 6.728 4 8.925v4.916c-4.777-2.768-8-7.922-8-13.841 0-8.835 7.162-15.997 15.998-15.997 1.572 0 3.09.231 4.523.654 2.195-2.827 5.617-4.654 9.475-4.654 6.627 0 11.998 5.371 11.998 11.998a11.96 11.96 0 0 1-.805 4.295zM57.943 33.644a7.97 7.97 0 0 0-5.662 2.35 16.097 16.097 0 0 1 5.629 5.854c.664-.113 1.338-.205 2.033-.205 2.125 0 4.119.559 5.85 1.527.096-.494.15-1.004.15-1.527a7.999 7.999 0 0 0-8-7.999zm0-8a2 2 0 0 1-2-2v-3.999a2 2 0 0 1 4 0v3.999c0 1.106-.894 2-2 2zm-14.14 4.686-2.828-2.828a2.003 2.003 0 0 1 0-2.828 2.001 2.001 0 0 1 2.828 0l2.828 2.828a2 2 0 1 1-2.828 2.828zm-1.858 23.311a2 2 0 0 1 2 2v15.998a2 2 0 1 1-4 0V55.641c0-1.104.897-2 2-2zm8 4a2 2 0 0 1 2 2v15.998a2 2 0 0 1-4 0V59.641c0-1.106.895-2 2-2zm7.998-4a2 2 0 0 1 2 2v15.998a2 2 0 1 1-4 0V55.641c0-1.104.897-2 2-2z"/></svg>