<svg version="1.1" id="Layer_1" xmlns="http://www.w3.org/2000/svg" x="0" y="0" width="100" height="100" xml:space="preserve"><path fill-rule="evenodd" clip-rule="evenodd" d="M79.996 43.642h-3.999a2 2 0 0 1 0-4h3.999a2 2 0 0 1 0 4zM72.14 30.33a2 2 0 1 1-2.828-2.828l2.828-2.828a2 2 0 1 1 2.828 2.828L72.14 30.33zm-2.948 15.608a11.948 11.948 0 0 1 2.805 7.703c0 6.627-5.371 11.998-11.998 11.998h-1a8.994 8.994 0 0 0-.943-3.998h1.943a8 8 0 0 0 0-15.998c-1.601 0-3.084.48-4.334 1.291-1.231-5.318-5.973-9.291-11.664-9.291-6.627 0-11.998 5.372-11.998 11.998 0 1.406.254 2.748.697 4h-.005a12.007 12.007 0 0 0 9.331 7.824 8.983 8.983 0 0 0-1.012 3.887c-6.096-1.152-10.964-5.76-12.498-11.711h.011a15.972 15.972 0 0 1-.524-4c0-8.834 7.162-15.997 15.998-15.997 1.572 0 3.089.231 4.523.654 2.195-2.827 5.617-4.654 9.475-4.654 6.627 0 11.998 5.371 11.998 11.998 0 1.516-.292 2.96-.805 4.296zM57.999 33.644a7.967 7.967 0 0 0-5.662 2.35 16.097 16.097 0 0 1 5.629 5.854c.664-.113 1.336-.205 2.033-.205 2.125 0 4.118.559 5.85 1.527a7.998 7.998 0 0 0-7.85-9.526zm0-8a2 2 0 0 1-2-2v-3.999a2 2 0 0 1 4 0v3.999c0 1.106-.895 2-2 2zM43.858 30.33l-2.828-2.828a2 2 0 1 1 2.828-2.828l2.828 2.828a2 2 0 1 1-2.828 2.828zM50 58.57l3.535 3.535a4.998 4.998 0 1 1-7.07 0L50 58.57z"/></svg>