<svg version="1.1" id="Layer_1" xmlns="http://www.w3.org/2000/svg" x="0" y="0" width="100" height="100" xml:space="preserve"><path fill-rule="evenodd" clip-rule="evenodd" d="M79.996 43.642h-3.999a2 2 0 0 1 0-4h3.999a2 2 0 0 1 0 4zM72.14 30.33a2 2 0 1 1-2.828-2.828l2.828-2.828a2 2 0 1 1 2.828 2.828L72.14 30.33zm-2.948 15.607a11.957 11.957 0 0 1 2.633 5.704h-.008c.109.652.18 1.318.18 2 0 6.627-5.372 12-11.998 12h-1.062l3.584-4.412c3.181-1.057 5.478-4.053 5.478-7.588 0-.691-.098-1.359-.263-2-.889-3.448-4.011-5.999-7.736-5.999-1.601 0-3.083.48-4.334 1.291-1.231-5.316-5.973-9.291-11.664-9.291-6.627 0-11.999 5.373-11.999 12 0 .682.07 1.348.181 1.999h-.014c.764 4.549 4.088 8.223 8.438 9.506l-1.35 3.777a16.003 16.003 0 0 1-11.116-13.283 16.091 16.091 0 0 1-.138-1.999c0-8.836 7.162-15.999 15.998-15.999 1.572 0 3.089.232 4.523.655 2.195-2.828 5.618-4.654 9.475-4.654 6.627 0 11.999 5.371 11.999 11.998a11.966 11.966 0 0 1-.807 4.295zM57.999 33.644a7.966 7.966 0 0 0-5.662 2.351 16.095 16.095 0 0 1 5.629 5.853c.664-.113 1.337-.205 2.033-.205 2.125 0 4.118.559 5.85 1.527a7.999 7.999 0 0 0-7.85-9.526zm0-7.999a2 2 0 0 1-2-2v-3.999a2 2 0 0 1 4 0v3.999a2 2 0 0 1-2 2zM43.858 30.33l-2.827-2.828a2 2 0 0 1 2.827-2.828l2.828 2.828a2 2 0 1 1-2.828 2.828zM48 51.641h9.999l-5.999 10h6.999L46.001 77.639l3.6-11.998h-6.6l4.999-14z"/></svg>