<svg version="1.1" id="Layer_1" xmlns="http://www.w3.org/2000/svg" x="0" y="0" width="100" height="100" xml:space="preserve"><path fill-rule="evenodd" clip-rule="evenodd" d="M63.943 64.941V60.56a7.993 7.993 0 0 0 3.998-6.92c0-4.418-3.58-8-7.998-8a7.937 7.937 0 0 0-4.334 1.291c-1.232-5.316-5.973-9.29-11.664-9.29-6.627 0-11.998 5.372-11.998 11.999 0 3.549 1.549 6.729 3.998 8.926v4.914c-4.777-2.768-7.998-7.922-7.998-13.84 0-8.836 7.162-15.998 15.998-15.998 6.004 0 11.229 3.312 13.965 8.203.664-.113 1.336-.205 2.033-.205 6.627 0 11.998 5.373 11.998 12 0 5.221-3.341 9.653-7.998 11.301zm-21.998-11.3a2 2 0 0 1 2 2v3.998a2 2 0 0 1-4 0v-3.998c0-1.106.895-2 2-2zm0 11.998a2 2 0 0 1 2 2v3.998a2 2 0 0 1-4 0v-3.998c0-1.106.895-2 2-2zm7.998-8a2 2 0 0 1 2 2v4a2 2 0 0 1-3.998 0v-4a2 2 0 0 1 1.998-2zm0 12c1.105 0 2 .895 2 1.998v4a2 2 0 1 1-3.998 0v-4c0-1.104.895-1.998 1.998-1.998zm8-15.998a2 2 0 0 1 2 2v3.998a2 2 0 0 1-4 0v-3.998c0-1.106.895-2 2-2zm0 11.998a2 2 0 0 1 2 2v3.998a2 2 0 0 1-4 0v-3.998c0-1.106.895-2 2-2z"/></svg>