<svg version="1.1" id="Layer_1" xmlns="http://www.w3.org/2000/svg" x="0" y="0" width="100" height="100" xml:space="preserve"><path fill-rule="evenodd" clip-rule="evenodd" d="m59.659 46.733-1.958 1.13A8.02 8.02 0 0 1 57.999 50c0 .742-.109 1.456-.298 2.138l1.958 1.13a2 2 0 0 1-2 3.463l-1.954-1.128A7.987 7.987 0 0 1 52 57.737v2.262a2 2 0 0 1-4 0v-2.262a7.982 7.982 0 0 1-3.705-2.134l-1.954 1.128a2 2 0 1 1-2-3.463l1.958-1.13A7.982 7.982 0 0 1 42.001 50c0-.741.108-1.455.298-2.137l-1.958-1.13a2 2 0 0 1 2-3.463l1.954 1.128A7.982 7.982 0 0 1 48 42.264v-2.262a2 2 0 0 1 4 0v2.262a7.987 7.987 0 0 1 3.705 2.134l1.954-1.128a2 2 0 1 1 2 3.463zM50 46.001a4 4 0 1 0 0 8 4 4 0 0 0 0-8z"/></svg>