<svg version="1.1" id="Layer_1" xmlns="http://www.w3.org/2000/svg" x="0" y="0" width="100" height="100" xml:space="preserve"><path fill-rule="evenodd" clip-rule="evenodd" d="M61.998 65.461v-4.082c3.448-.891 6-4.012 6-7.738a8 8 0 0 0-7.999-7.999c-1.601 0-3.084.48-4.334 1.291-1.231-5.317-5.973-9.291-11.664-9.291-6.627 0-11.999 5.373-11.999 12 0 4.438 2.417 8.305 5.999 10.379v4.445c-5.86-2.375-9.998-8.113-9.998-14.825 0-8.835 7.162-15.999 15.998-15.999 6.004 0 11.229 3.312 13.965 8.204.664-.113 1.336-.205 2.033-.205 6.626 0 11.998 5.373 11.998 11.998 0 5.947-4.326 10.867-9.999 11.822zm-18.926-5.82a2 2 0 0 1 2.732-.732L48 60.176v-2.535a2 2 0 0 1 4 0v2.535l2.195-1.268a2 2 0 0 1 2 3.464l-2.196 1.268 2.196 1.268a2 2 0 1 1-2 3.462L52 67.104v2.535a2 2 0 0 1-4 0v-2.535l-2.195 1.268a2 2 0 1 1-2-3.462L46 63.641l-2.195-1.268a2.001 2.001 0 0 1-.733-2.732zm6.928 6a2 2 0 1 0-.001-4.001A2 2 0 0 0 50 65.64z"/></svg>