<svg version="1.1" id="Layer_1" xmlns="http://www.w3.org/2000/svg" x="0" y="0" width="100" height="100" xml:space="preserve"><path fill-rule="evenodd" clip-rule="evenodd" d="M50 67.867a8 8 0 0 1-8-8c0-2.025.76-3.869 2-5.279V37.871a6 6 0 0 1 12 0v16.717a7.966 7.966 0 0 1 1.998 5.279c0 4.418-3.58 8-7.998 8zm2-11.445V37.871a2 2 0 0 0-4 0V56.422c-1.189.693-2 1.969-2 3.445a4 4 0 0 0 8 0c0-1.476-.811-2.752-2-3.445zm-2 6.445c-1.656 0-3-1.344-3-3 0-1.305.838-2.402 2-2.816V37.87a1 1 0 1 1 2 0v19.181c1.162.414 2 1.512 2 2.816 0 1.656-1.344 3-3 3z"/></svg>