<svg version="1.1" id="Layer_1" xmlns="http://www.w3.org/2000/svg" x="0" y="0" width="100" height="100" xml:space="preserve"><path fill-rule="evenodd" clip-rule="evenodd" d="M65.999 52h-3a2 2 0 1 1 0-3.999h3a2 2 0 0 0 0-3.999 2 2 0 1 1 .402-3.959c3.121.211 5.596 2.783 5.596 5.959A5.998 5.998 0 0 1 65.999 52zm-10-3.999H34.002a2 2 0 0 0 0 3.999h21.997a6 6 0 0 1 6 6c0 3.176-2.475 5.748-5.596 5.959A2 2 0 1 0 55.999 56H34.002a6 6 0 0 1-5.999-5.999c0-3.175 2.475-5.747 5.596-5.959a2.07 2.07 0 0 1 .403-.04h21.997a2 2 0 0 0 0-4 2 2 0 1 1 .404-3.959c3.121.211 5.596 2.783 5.596 5.959a6 6 0 0 1-6 5.999z"/></svg>