<svg version="1.1" id="Layer_1" xmlns="http://www.w3.org/2000/svg" x="0" y="0" width="100" height="100" xml:space="preserve"><path fill-rule="evenodd" clip-rule="evenodd" d="M50 61.998c-6.627 0-11.999-5.372-11.999-11.998 0-6.627 5.372-11.999 11.999-11.999.755 0 1.491.078 2.207.212a7.988 7.988 0 0 0-.208 1.788 8 8 0 0 0 8 7.999c.615 0 1.212-.076 1.788-.208.133.717.211 1.452.211 2.208 0 6.626-5.372 11.998-11.998 11.998zm-1.788-19.79c-3.556.813-6.211 3.989-6.211 7.792A8 8 0 0 0 50 57.999c3.802 0 6.978-2.655 7.791-6.211a11.998 11.998 0 0 1-9.579-9.58z"/></svg>