<svg version="1.1" id="Layer_1" xmlns="http://www.w3.org/2000/svg" x="0" y="0" width="100" height="100" xml:space="preserve"><path fill-rule="evenodd" clip-rule="evenodd" d="M69.819 46.758a12.06 12.06 0 0 1 1.469 2.884h.019-4.387a7.99 7.99 0 0 0-6.921-3.999c-1.6 0-3.082.48-4.333 1.29-1.231-5.316-5.974-9.29-11.665-9.29-6.626 0-11.998 5.372-11.998 11.999h-4c0-8.835 7.163-15.998 15.998-15.998 2.003 0 3.914.376 5.68 1.048 1.635-4.683 6.079-8.047 11.318-8.047.756 0 1.492.078 2.208.211a7.99 7.99 0 0 0-.208 1.789 7.998 7.998 0 0 0 7.999 7.998 8.04 8.04 0 0 0 1.788-.207c.134.717.212 1.452.212 2.207 0 3.134-1.212 5.978-3.179 8.115zM59.212 30.852c-2.9.663-5.175 2.91-5.924 5.774a16.094 16.094 0 0 1 4.678 5.222c.664-.114 1.338-.205 2.033-.205 2.619 0 5.033.848 7.006 2.271a7.991 7.991 0 0 0 1.785-3.482 12 12 0 0 1-9.578-9.58zM30.003 53.641h39.996a2 2 0 0 1 0 4H30.003a2 2 0 0 1 0-4zm0 8h39.996a1.999 1.999 0 0 1 0 3.999H30.003a2 2 0 0 1 0-3.999zm0 7.998h39.996a2 2 0 0 1 0 4H30.003a2 2 0 0 1 0-4z"/></svg>