<svg version="1.1" id="Layer_1" xmlns="http://www.w3.org/2000/svg" x="0" y="0" width="100" height="100" xml:space="preserve"><path fill-rule="evenodd" clip-rule="evenodd" d="M50.001 57.641a2 2 0 0 0-2 2v15.998a2 2 0 0 0 4 0V59.641a2 2 0 0 0-2-2zm7.998-4a2 2 0 0 0-1.999 2v15.998a2 2 0 1 0 3.999 0V55.641a2 2 0 0 0-2-2zm-15.998 0a2 2 0 0 0-1.999 2v15.998a2 2 0 1 0 3.999 0V55.641a2 2 0 0 0-2-2zm30.996-14.999c0-.754-.078-1.49-.211-2.207a7.988 7.988 0 0 1-1.788.208 7.999 7.999 0 0 1-7.999-7.999c0-.615.076-1.213.207-1.788a11.967 11.967 0 0 0-2.207-.212c-5.24 0-9.684 3.365-11.318 8.047a15.931 15.931 0 0 0-5.68-1.047c-8.835 0-15.998 7.162-15.998 15.997 0 5.919 3.223 11.074 8 13.841v-4.916c-2.45-2.197-4-5.375-4-8.925 0-6.626 5.371-11.998 11.998-11.998 5.691 0 10.434 3.973 11.665 9.29a7.93 7.93 0 0 1 4.333-1.291 7.999 7.999 0 0 1 7.999 7.999 7.987 7.987 0 0 1-3.999 6.92v4.381c4.656-1.648 7.999-6.078 7.999-11.301 0-2.562-.811-4.933-2.18-6.882a11.943 11.943 0 0 0 3.179-8.117zm-5.992 5.272a11.926 11.926 0 0 0-7.006-2.271c-.696 0-1.369.092-2.033.205a16.081 16.081 0 0 0-4.679-5.221c.75-2.865 3.024-5.111 5.924-5.775a12 12 0 0 0 9.579 9.58 8.013 8.013 0 0 1-1.785 3.482z"/></svg>