<svg version="1.1" id="Layer_1" xmlns="http://www.w3.org/2000/svg" x="0" y="0" width="100" height="100" xml:space="preserve"><path fill-rule="evenodd" clip-rule="evenodd" d="M69.819 46.758a11.974 11.974 0 0 1 2.003 4.883h-.004c.109.652.18 1.317.18 2 0 6.627-5.372 11.999-11.999 11.999h-1.062l3.584-4.412c3.181-1.057 5.478-4.051 5.478-7.587 0-.691-.098-1.359-.263-2-.89-3.447-4.011-5.999-7.737-5.999-1.6 0-3.082.481-4.333 1.291-1.231-5.316-5.974-9.29-11.665-9.29-6.626 0-11.998 5.372-11.998 11.999 0 .683.07 1.348.18 1.999h-.014c.764 4.548 4.088 8.223 8.438 9.505l-1.35 3.778a16.005 16.005 0 0 1-11.116-13.283 16.064 16.064 0 0 1-.139-1.999c0-8.836 7.163-15.998 15.998-15.998 2.003 0 3.914.375 5.68 1.048 1.635-4.683 6.079-8.047 11.318-8.047.756 0 1.492.078 2.208.211a7.988 7.988 0 0 0-.208 1.788 8 8 0 0 0 7.999 7.999 8.04 8.04 0 0 0 1.788-.207c.134.716.212 1.452.212 2.207a11.939 11.939 0 0 1-3.178 8.115zM59.212 30.852c-2.9.663-5.175 2.909-5.924 5.774a16.094 16.094 0 0 1 4.678 5.222c.664-.114 1.338-.205 2.033-.205 2.619 0 5.033.848 7.006 2.271a7.98 7.98 0 0 0 1.785-3.482 12 12 0 0 1-9.578-9.58zM48.001 51.641H58l-5.999 9.999H59L46.001 77.638l3.6-11.998h-6.599l4.999-13.999z"/></svg>