<svg version="1.1" id="Layer_1" xmlns="http://www.w3.org/2000/svg" x="0" y="0" width="100" height="100" xml:space="preserve"><path fill-rule="evenodd" clip-rule="evenodd" d="M69.818 46.759a11.93 11.93 0 0 1 2.18 6.881c0 5.223-3.342 9.652-7.999 11.303v-4.381a7.993 7.993 0 0 0 3.999-6.922 8 8 0 0 0-7.999-7.999c-1.6 0-3.083.48-4.333 1.291-1.232-5.317-5.974-9.291-11.665-9.291-6.626 0-11.998 5.373-11.998 12 0 3.549 1.55 6.729 3.999 8.924v4.916c-4.776-2.768-7.999-7.922-7.999-13.84 0-8.835 7.163-15.999 15.998-15.999 2.002 0 3.914.376 5.68 1.048 1.635-4.682 6.078-8.047 11.318-8.047.755 0 1.491.078 2.208.211a7.997 7.997 0 0 0-.208 1.789 7.998 7.998 0 0 0 7.999 7.998c.615 0 1.212-.075 1.788-.207.134.717.212 1.453.212 2.207 0 3.136-1.212 5.98-3.18 8.118zM59.211 30.852c-2.9.664-5.174 2.91-5.924 5.775a16.082 16.082 0 0 1 4.679 5.221c.664-.113 1.337-.205 2.033-.205 2.618 0 5.033.847 7.005 2.271a7.971 7.971 0 0 0 1.786-3.482 12 12 0 0 1-9.579-9.58zM43.073 59.641a2 2 0 0 1 2.731-.732L48 60.177v-2.535a2 2 0 0 1 3.999 0v2.535l2.196-1.268a2 2 0 0 1 2 3.464L54 63.641l2.196 1.268a2 2 0 1 1-2 3.462L52 67.104v2.535a2 2 0 1 1-3.999 0v-2.535l-2.196 1.268a1.999 1.999 0 1 1-2-3.462l2.196-1.268-2.196-1.268a2.002 2.002 0 0 1-.732-2.733zm6.928 6a2 2 0 1 0-.002-4 2 2 0 0 0 .002 4z"/></svg>