<svg version="1.1" id="Layer_1" xmlns="http://www.w3.org/2000/svg" x="0" y="0" width="100" height="100" xml:space="preserve"><path fill-rule="evenodd" clip-rule="evenodd" d="M69.817 46.759a11.93 11.93 0 0 1 2.18 6.881c0 5.223-3.342 9.652-7.998 11.303v-4.381a7.995 7.995 0 0 0-4-14.921c-1.601 0-3.084.48-4.334 1.291-1.231-5.317-5.973-9.291-11.664-9.291-6.627 0-11.998 5.373-11.998 12 0 3.549 1.55 6.729 3.999 8.924v4.916c-4.777-2.768-7.999-7.922-7.999-13.84 0-8.835 7.162-15.999 15.998-15.999 2.002 0 3.914.376 5.68 1.048 1.635-4.682 6.078-8.047 11.318-8.047.755 0 1.49.078 2.207.211a8.056 8.056 0 0 0-.207 1.789 7.997 7.997 0 0 0 7.998 7.998 7.99 7.99 0 0 0 1.789-.207c.133.717.211 1.453.211 2.207a11.94 11.94 0 0 1-3.18 8.118zM59.21 30.852c-2.899.664-5.174 2.91-5.924 5.775a16.074 16.074 0 0 1 4.68 5.221c.664-.113 1.336-.205 2.033-.205 2.617 0 5.033.848 7.005 2.271a7.993 7.993 0 0 0 1.786-3.482 12.002 12.002 0 0 1-9.58-9.58zM42.001 57.641A2 2 0 1 1 42 61.642 2 2 0 0 1 42 57.641zm0 8a2 2 0 1 1 0 4 2 2 0 0 1 0-4zm7.999-4a2 2 0 1 1 0 4 2 2 0 0 1 0-4zm0 7.998a2 2 0 1 1-.001 4.001A2 2 0 0 1 50 69.64zm7.999-11.998a2 2 0 1 1-.001 4.001 2 2 0 0 1 .001-4.001zm0 8a2 2 0 1 1 0 4 2 2 0 0 1 0-4z"/></svg>