<svg version="1.1" id="Layer_1" xmlns="http://www.w3.org/2000/svg" x="0" y="0" width="100" height="100" xml:space="preserve"><path fill-rule="evenodd" clip-rule="evenodd" d="M79.996 43.642h-3.999a2 2 0 0 1 0-4h3.999a2 2 0 0 1 0 4zM72.14 30.33a2 2 0 1 1-2.828-2.828l2.828-2.828a2 2 0 1 1 2.828 2.828L72.14 30.33zm-2.948 15.607a11.988 11.988 0 0 1 2.113 3.705h-4.387a7.989 7.989 0 0 0-6.92-4c-1.601 0-3.083.48-4.334 1.291-1.231-5.316-5.973-9.291-11.664-9.291-6.627 0-11.999 5.373-11.999 12h-3.999c0-8.836 7.162-15.999 15.998-15.999 1.572 0 3.089.232 4.523.655 2.195-2.828 5.618-4.654 9.475-4.654 6.627 0 11.999 5.371 11.999 11.998a11.922 11.922 0 0 1-.805 4.295zM57.999 33.644a7.966 7.966 0 0 0-5.662 2.351 16.11 16.11 0 0 1 5.629 5.853c.664-.113 1.337-.205 2.033-.205 2.125 0 4.118.559 5.85 1.527a7.999 7.999 0 0 0-7.85-9.526zm0-7.999a2 2 0 0 1-2-2v-3.999a2 2 0 0 1 4 0v3.999a2 2 0 0 1-2 2zM43.858 30.33l-2.827-2.828a2 2 0 0 1 2.827-2.828l2.828 2.828a2 2 0 1 1-2.828 2.828zM30.003 53.641h39.995a2 2 0 0 1 0 4H30.003a2 2 0 0 1 0-4zm0 8h39.995a2 2 0 0 1 0 4H30.003a2 2 0 0 1 0-4zm0 7.998h39.995a2 2 0 0 1 0 4H30.003a2 2 0 0 1 0-4z"/></svg>