<svg xmlns="http://www.w3.org/2000/svg" width="414" height="415"><defs><clipPath id="clip-day"><path d="M0 0h414v415H0z"/></clipPath></defs><g id="day" clip-path="url('#clip-day')"><path fill="#e6ecf6" d="M0 0h414v415H0z"/><path id="cloud" d="M178.116 53.739a41.653 41.653 0 0 0-8.258.826 34.058 34.058 0 0 0-47.7-24.214A45.459 45.459 0 0 0 36.7 61.377a37.9 37.9 0 0 0 1.139 75.772h140.28a41.7 41.7 0 1 0 0-83.41Zm0 0" transform="translate(15.001 32.608)" fill="#fff"/><path id="cloud-2" data-name="cloud" d="M156.075 47.137a36.5 36.5 0 0 0-7.236.723 29.843 29.843 0 0 0-41.8-21.218A39.834 39.834 0 0 0 32.156 53.83a33.206 33.206 0 0 0 1 66.4h122.919a36.544 36.544 0 1 0 0-73.088Zm0 0" transform="translate(104.001 32.531)" fill="#fff" opacity=".52"/><path id="cloud-3" data-name="cloud" d="M26.254 33.975a26.222 26.222 0 0 1 5.2.52 21.441 21.441 0 0 1 30.027-15.244 28.618 28.618 0 0 1 53.8 19.532 23.856 23.856 0 0 1-.717 47.7h-88.31a26.255 26.255 0 1 1 0-52.509Zm0 0" transform="translate(318.26 159.608)" fill="#fff"/><path id="cloud-4" data-name="cloud" d="M33.76 43.577a33.719 33.719 0 0 1 6.685.668 27.571 27.571 0 0 1 38.613-19.6 36.8 36.8 0 1 1 69.183 25.115 30.677 30.677 0 0 1-.922 61.339H33.76a33.761 33.761 0 1 1 0-67.522Zm0 0" transform="translate(-52.999 211.608)" fill="#fff"/></g></svg>