<svg aria-hidden="true" style="width:0;height:0;position:absolute;overflow:hidden" xmlns="http://www.w3.org/2000/svg"><defs><symbol id="icon-1" viewBox="0 0 32 32"><path d="M23.039 16.64H21.76a.64.64 0 1 1 0-1.28h1.279a.64.64 0 1 1 0 1.28zm-2.514-4.26a.64.64 0 1 1-.905-.905l.905-.905a.64.64 0 1 1 .905.905l-.905.905zM16 19.839a3.84 3.84 0 1 1-.001-7.679A3.84 3.84 0 0 1 16 19.839zm0-6.399a2.56 2.56 0 1 0 0 5.12 2.56 2.56 0 0 0 0-5.12zm0-2.559a.64.64 0 0 1-.64-.64v-1.28a.64.64 0 1 1 1.28 0v1.28a.64.64 0 0 1-.64.64zm-4.525 1.499-.905-.905a.64.64 0 1 1 .905-.905l.905.905a.64.64 0 1 1-.905.905zM10.881 16a.64.64 0 0 1-.64.64h-1.28a.64.64 0 1 1 0-1.28h1.28a.64.64 0 0 1 .64.64zm.594 3.62a.64.64 0 1 1 .905.905l-.905.905a.64.64 0 1 1-.905-.905l.905-.905zM16 21.119a.64.64 0 0 1 .64.64v1.28a.64.64 0 0 1-1.28 0v-1.28a.64.64 0 0 1 .64-.64zm4.525-1.499.905.905a.64.64 0 1 1-.905.905l-.905-.905a.64.64 0 1 1 .905-.905z"/></symbol><symbol id="icon-2" viewBox="0 0 32 32"><path d="M25.581 13.965h-1.28a.64.64 0 1 1 0-1.279h1.28a.64.64 0 1 1 0 1.279zm-2.514-4.26a.64.64 0 1 1-.905-.905l.905-.905a.64.64 0 1 1 .905.905l-.905.905zm-.943 4.995a3.84 3.84 0 0 1-2.942 6.305h-5.119a5.12 5.12 0 1 1 1.447-10.029 3.828 3.828 0 0 1 3.032-1.489 3.84 3.84 0 0 1 3.84 3.839c0 .485-.094.948-.258 1.374zm-11.901 1.185a3.839 3.839 0 0 0 3.839 3.839h5.119a2.56 2.56 0 1 0 0-5.119c-.512 0-.987.154-1.387.413a3.835 3.835 0 0 0-7.572.867zm8.319-5.119c-.708 0-1.349.287-1.812.752a5.159 5.159 0 0 1 1.801 1.873c.212-.036.428-.066.651-.066.68 0 1.318.179 1.872.489a2.56 2.56 0 0 0-2.512-3.048zm0-2.56a.64.64 0 0 1-.64-.64v-1.28a.64.64 0 1 1 1.28 0v1.28a.64.64 0 0 1-.64.64zm-4.525 1.499-.905-.905a.64.64 0 1 1 .905-.905l.905.905a.64.64 0 1 1-.905.905z"/></symbol><symbol id="icon-3" viewBox="0 0 32 32"><path d="M25.581 13.965h-1.28a.64.64 0 1 1 0-1.279h1.28a.64.64 0 1 1 0 1.279zm-2.514-4.26a.64.64 0 1 1-.905-.905l.905-.905a.64.64 0 1 1 .905.905l-.905.905zm-.943 4.995a3.84 3.84 0 0 1-2.942 6.305h-5.119a5.12 5.12 0 1 1 1.447-10.029 3.828 3.828 0 0 1 3.032-1.489 3.84 3.84 0 0 1 3.84 3.839c0 .485-.094.948-.258 1.374zm-11.901 1.185a3.839 3.839 0 0 0 3.839 3.839h5.119a2.56 2.56 0 1 0 0-5.119c-.512 0-.987.154-1.387.413a3.835 3.835 0 0 0-7.572.867zm8.319-5.119c-.708 0-1.349.287-1.812.752a5.159 5.159 0 0 1 1.801 1.873c.212-.036.428-.066.651-.066.68 0 1.318.179 1.872.489a2.56 2.56 0 0 0-2.512-3.048zm0-2.56a.64.64 0 0 1-.64-.64v-1.28a.64.64 0 1 1 1.28 0v1.28a.64.64 0 0 1-.64.64zm-4.525 1.499-.905-.905a.64.64 0 1 1 .905-.905l.905.905a.64.64 0 1 1-.905.905z"/></symbol><symbol id="icon-4" viewBox="0 0 32 32"><path d="M25.581 13.965h-1.28a.64.64 0 1 1 0-1.279h1.28a.64.64 0 1 1 0 1.279zm-2.514-4.26a.64.64 0 1 1-.905-.905l.905-.905a.64.64 0 1 1 .905.905l-.905.905zm-.943 4.995a3.84 3.84 0 0 1-2.942 6.305h-5.119a5.12 5.12 0 1 1 1.447-10.029 3.828 3.828 0 0 1 3.032-1.489 3.84 3.84 0 0 1 3.84 3.839c0 .485-.094.948-.258 1.374zm-11.901 1.185a3.839 3.839 0 0 0 3.839 3.839h5.119a2.56 2.56 0 1 0 0-5.119c-.512 0-.987.154-1.387.413a3.835 3.835 0 0 0-7.572.867zm8.319-5.119c-.708 0-1.349.287-1.812.752a5.159 5.159 0 0 1 1.801 1.873c.212-.036.428-.066.651-.066.68 0 1.318.179 1.872.489a2.56 2.56 0 0 0-2.512-3.048zm0-2.56a.64.64 0 0 1-.64-.64v-1.28a.64.64 0 1 1 1.28 0v1.28a.64.64 0 0 1-.64.64zm-4.525 1.499-.905-.905a.64.64 0 1 1 .905-.905l.905.905a.64.64 0 1 1-.905.905z"/></symbol><symbol id="icon-5" viewBox="0 0 32 32"><path d="M25.599 13.965h-1.28a.64.64 0 1 1 0-1.28h1.28a.64.64 0 0 1 0 1.28zm-2.514-4.259a.64.64 0 1 1-.905-.905l.905-.905a.64.64 0 1 1 .905.905l-.905.905zm-.944 4.994c.292.348.522.749.676 1.186h-1.404a2.558 2.558 0 0 0-2.214-1.28c-.512 0-.987.154-1.387.413a3.835 3.835 0 0 0-7.572.867H8.96a5.12 5.12 0 0 1 6.566-4.91 3.828 3.828 0 0 1 3.032-1.489 3.84 3.84 0 0 1 3.84 3.839 3.8 3.8 0 0 1-.258 1.374zm-3.581-3.934c-.708 0-1.349.287-1.812.752a5.15 5.15 0 0 1 1.801 1.873c.212-.036.428-.066.651-.066.68 0 1.318.179 1.872.489a2.56 2.56 0 0 0-2.512-3.049zm0-2.56a.64.64 0 0 1-.64-.64v-1.28a.64.64 0 0 1 1.28 0v1.28a.64.64 0 0 1-.64.64zm-4.525 1.5-.905-.905a.64.64 0 1 1 .905-.905l.905.905a.64.64 0 1 1-.905.905zm-4.434 7.459h12.798a.64.64 0 0 1 0 1.28H9.601a.64.64 0 1 1 0-1.28zm0 2.56h12.798a.64.64 0 1 1 0 1.28H9.601a.64.64 0 0 1 0-1.28zm0 2.559h12.798a.64.64 0 0 1 0 1.28H9.601a.64.64 0 1 1 0-1.28z"/></symbol><symbol id="icon-6" viewBox="0 0 32 32"><path d="M14.062 21.004a5.12 5.12 0 1 1 4.469-7.613c.212-.036.428-.066.651-.066a3.84 3.84 0 1 1 0 7.679h-5.119zm5.12-1.28a2.56 2.56 0 1 0 0-5.119c-.512 0-.986.154-1.387.413a3.836 3.836 0 0 0-3.733-2.973 3.84 3.84 0 0 0 0 7.679h5.119z"/></symbol><symbol id="icon-7" viewBox="0 0 32 32"><path d="M14.062 21.004a5.12 5.12 0 1 1 4.469-7.613c.212-.036.428-.066.651-.066a3.84 3.84 0 1 1 0 7.679h-5.119zm5.12-1.28a2.56 2.56 0 1 0 0-5.119c-.512 0-.986.154-1.387.413a3.836 3.836 0 0 0-3.733-2.973 3.84 3.84 0 0 0 0 7.679h5.119z"/></symbol><symbol id="icon-8" viewBox="0 0 32 32"><path d="M14.062 21.004a5.12 5.12 0 1 1 4.469-7.613c.212-.036.428-.066.651-.066a3.84 3.84 0 1 1 0 7.679h-5.119zm5.12-1.28a2.56 2.56 0 1 0 0-5.119c-.512 0-.986.154-1.387.413a3.836 3.836 0 0 0-3.733-2.973 3.84 3.84 0 0 0 0 7.679h5.119z"/></symbol><symbol id="icon-11" viewBox="0 0 32 32"><path d="M22.399 21.005H9.601a.64.64 0 0 1 0-1.28h12.798a.64.64 0 1 1 0 1.28zm0-2.56H9.601a.64.64 0 1 1 0-1.28h12.798a.64.64 0 0 1 0 1.28zM19.2 14.606c-.512 0-.987.154-1.387.413a3.836 3.836 0 0 0-3.733-2.973 3.84 3.84 0 0 0-3.839 3.84h-1.28a5.117 5.117 0 0 1 9.588-2.495c.212-.036.428-.066.651-.066a3.836 3.836 0 0 1 3.616 2.56h-1.402a2.556 2.556 0 0 0-2.214-1.28zm-9.599 7.678h12.798a.64.64 0 0 1 0 1.28H9.601a.64.64 0 1 1 0-1.28z"/></symbol><symbol id="icon-12" viewBox="0 0 32 32"><path d="M19.2 21.005h-.32a2.88 2.88 0 0 0-.302-1.28h.622a2.56 2.56 0 1 0 0-5.119c-.512 0-.987.154-1.387.413a3.834 3.834 0 0 0-7.571.867 3.837 3.837 0 0 0 3.207 3.783 2.88 2.88 0 0 0-.324 1.244 5.118 5.118 0 1 1 5.424-7.521c.212-.036.428-.066.651-.066a3.839 3.839 0 1 1 0 7.679zM16 18.742l1.131 1.131a1.6 1.6 0 1 1-2.262 0L16 18.742z"/></symbol><symbol id="icon-13" viewBox="0 0 32 32"><path d="M25.581 13.965h-1.28a.64.64 0 1 1 0-1.28h1.28a.64.64 0 0 1 0 1.28zm-2.514-4.259a.64.64 0 1 1-.905-.905l.905-.905a.64.64 0 1 1 .905.905l-.905.905zm-.943 4.994a3.836 3.836 0 0 1-1.661 6.081v-1.402a2.558 2.558 0 0 0-1.28-4.774c-.512 0-.987.154-1.387.413a3.835 3.835 0 1 0-6.291 3.722v1.573a5.113 5.113 0 0 1-2.56-4.429 5.12 5.12 0 0 1 6.566-4.91 3.839 3.839 0 0 1 6.871 2.35 3.8 3.8 0 0 1-.258 1.374zm-3.582-3.934c-.708 0-1.349.287-1.812.752a5.15 5.15 0 0 1 1.801 1.873c.212-.036.428-.066.651-.066.68 0 1.318.179 1.872.489a2.56 2.56 0 0 0-2.512-3.049zm0-2.56a.64.64 0 0 1-.64-.64v-1.28a.64.64 0 0 1 1.28 0v1.28a.64.64 0 0 1-.64.64zm-4.525 1.5-.905-.905a.64.64 0 1 1 .905-.905l.905.905a.64.64 0 1 1-.905.905zm-.595 7.459a.64.64 0 0 1 .64.64v5.119a.64.64 0 1 1-1.28 0v-5.119a.64.64 0 0 1 .64-.64zm2.56 1.28a.64.64 0 0 1 .64.64v5.119a.64.64 0 0 1-1.28 0v-5.119a.64.64 0 0 1 .64-.64zm2.56-1.28a.64.64 0 0 1 .64.64v5.119a.64.64 0 1 1-1.28 0v-5.119a.64.64 0 0 1 .64-.64z"/></symbol><symbol id="icon-14" viewBox="0 0 32 32"><path d="M25.599 13.965h-1.28a.64.64 0 1 1 0-1.28h1.28a.64.64 0 0 1 0 1.28zm-2.514-4.259a.64.64 0 1 1-.905-.905l.905-.905a.64.64 0 1 1 .905.905l-.905.905zm-.944 4.994a3.839 3.839 0 0 1-2.941 6.304h-.32c0-.439-.102-.877-.302-1.279h.622a2.56 2.56 0 1 0 0-5.119c-.512 0-.987.154-1.387.413a3.834 3.834 0 1 0-7.348 2.146h-.002a3.844 3.844 0 0 0 2.986 2.504c-.204.389-.31.815-.324 1.244a5.122 5.122 0 0 1-3.999-3.748h.004a5.092 5.092 0 0 1-.168-1.28 5.12 5.12 0 0 1 6.566-4.91 3.839 3.839 0 0 1 6.871 2.35c0 .485-.093.947-.258 1.375zm-3.581-3.934c-.708 0-1.349.287-1.812.752a5.15 5.15 0 0 1 1.801 1.873c.212-.036.428-.066.651-.066.68 0 1.318.179 1.872.489a2.56 2.56 0 0 0-2.512-3.049zm0-2.56a.64.64 0 0 1-.64-.64v-1.28a.64.64 0 0 1 1.28 0v1.28a.64.64 0 0 1-.64.64zm-4.525 1.5-.905-.905a.64.64 0 1 1 .905-.905l.905.905a.64.64 0 1 1-.905.905zM16 18.742l1.131 1.131a1.599 1.599 0 1 1-2.262 0L16 18.742z"/></symbol><symbol id="icon-15" viewBox="0 0 32 32"><path d="M19.2 21.005h-.34l1.147-1.412a2.56 2.56 0 0 0-.807-4.987c-.512 0-.987.154-1.387.413a3.836 3.836 0 0 0-3.733-2.973 3.84 3.84 0 0 0-1.086 7.521l-.432 1.209a5.12 5.12 0 0 1 1.517-10.01 5.117 5.117 0 0 1 4.469 2.625c.212-.036.428-.066.651-.066a3.84 3.84 0 1 1 0 7.679zm-3.84-4.48h3.199l-1.92 3.2h2.24l-4.159 5.119 1.152-3.839H13.76l1.6-4.48z"/></symbol><symbol id="icon-16" viewBox="0 0 32 32"><path d="M19.2 21.005h-.34l1.147-1.412a2.56 2.56 0 0 0-.807-4.987c-.512 0-.987.154-1.387.413a3.836 3.836 0 0 0-3.733-2.973 3.84 3.84 0 0 0-1.086 7.521l-.432 1.209a5.12 5.12 0 0 1 1.517-10.01 5.117 5.117 0 0 1 4.469 2.625c.212-.036.428-.066.651-.066a3.84 3.84 0 1 1 0 7.679zm-3.84-4.48h3.199l-1.92 3.2h2.24l-4.159 5.119 1.152-3.839H13.76l1.6-4.48z"/></symbol><symbol id="icon-17" viewBox="0 0 32 32"><path d="M25.599 13.965h-1.28a.64.64 0 1 1 0-1.28h1.28a.64.64 0 0 1 0 1.28zm-2.514-4.259a.64.64 0 1 1-.905-.905l.905-.905a.64.64 0 1 1 .905.905l-.905.905zm-.944 4.994c.429.512.727 1.138.843 1.825h-.003c.035.209.058.422.058.64a3.84 3.84 0 0 1-3.839 3.84h-.34l1.147-1.412a2.56 2.56 0 0 0 1.753-2.428c0-.221-.031-.435-.084-.64a2.559 2.559 0 0 0-2.476-1.92c-.512 0-.987.154-1.387.413a3.835 3.835 0 0 0-7.572.867c0 .218.022.431.058.64h-.004a3.844 3.844 0 0 0 2.7 3.042l-.432 1.209a5.12 5.12 0 0 1-3.557-4.251 5.197 5.197 0 0 1-.044-.64 5.12 5.12 0 0 1 6.566-4.91 3.828 3.828 0 0 1 3.032-1.489 3.84 3.84 0 0 1 3.84 3.839c0 .485-.094.947-.258 1.374zm-3.581-3.934c-.708 0-1.349.287-1.812.752a5.143 5.143 0 0 1 1.801 1.873c.212-.036.428-.066.651-.066.68 0 1.318.179 1.872.489a2.56 2.56 0 0 0-2.512-3.049zm0-2.56a.64.64 0 0 1-.64-.64v-1.28a.64.64 0 0 1 1.28 0v1.28a.64.64 0 0 1-.64.64zm-4.525 1.5-.905-.905a.64.64 0 1 1 .905-.905l.905.905a.64.64 0 1 1-.905.905zm1.325 6.819h3.2l-1.92 3.2h2.24l-4.159 5.119 1.152-3.839h-2.112l1.6-4.48z"/></symbol><symbol id="icon-18" viewBox="0 0 32 32"><path d="M20.462 20.781v-1.402a2.558 2.558 0 0 0-1.28-4.774c-.512 0-.986.154-1.387.413a3.836 3.836 0 0 0-3.733-2.973 3.84 3.84 0 0 0-3.839 3.839c0 1.136.496 2.153 1.28 2.856v1.573a5.113 5.113 0 0 1-2.56-4.429 5.12 5.12 0 0 1 9.588-2.494c.212-.036.428-.066.651-.066a3.84 3.84 0 0 1 3.84 3.84 3.836 3.836 0 0 1-2.56 3.616zm-7.039-3.616a.64.64 0 0 1 .64.64v5.119a.64.64 0 1 1-1.28 0v-5.119a.64.64 0 0 1 .64-.64zm2.559 1.28a.64.64 0 0 1 .64.64v5.119a.64.64 0 0 1-1.28 0v-5.119a.64.64 0 0 1 .64-.64zm2.56-1.28a.64.64 0 0 1 .64.64v5.119a.64.64 0 1 1-1.28 0v-5.119a.64.64 0 0 1 .64-.64z"/></symbol><symbol id="icon-19" viewBox="0 0 32 32"><path d="M20.462 20.781v-1.402a2.557 2.557 0 1 0-2.667-4.361 3.835 3.835 0 1 0-6.292 3.723v1.572a5.112 5.112 0 0 1-2.559-4.429 5.119 5.119 0 0 1 9.588-2.494c.212-.036.428-.066.651-.066a3.839 3.839 0 0 1 1.28 7.456zm-7.04-3.616a.64.64 0 0 1 .64.64v1.279a.64.64 0 1 1-1.28 0v-1.279a.64.64 0 0 1 .64-.64zm0 3.839a.64.64 0 0 1 .64.64v1.279a.64.64 0 1 1-1.28 0v-1.279a.64.64 0 0 1 .64-.64zm2.56-2.56a.64.64 0 0 1 .64.64v1.28a.64.64 0 1 1-1.279 0v-1.28a.64.64 0 0 1 .639-.64zm0 3.84a.64.64 0 0 1 .64.639v1.28a.64.64 0 1 1-1.279 0v-1.28c0-.353.286-.639.639-.639zm2.56-5.119a.64.64 0 0 1 .64.64v1.279a.64.64 0 1 1-1.28 0v-1.279a.64.64 0 0 1 .64-.64zm0 3.839a.64.64 0 0 1 .64.64v1.279a.64.64 0 1 1-1.28 0v-1.279a.64.64 0 0 1 .64-.64z"/></symbol><symbol id="icon-20" viewBox="0 0 32 32"><path d="M19.182 13.325a3.78 3.78 0 0 0-.651.066 5.117 5.117 0 1 0-6.971 6.957c.088-.404.285-.789.599-1.102l.018-.018a3.837 3.837 0 1 1 5.618-4.208c.4-.259.875-.413 1.387-.413a2.557 2.557 0 0 1 .885 4.959c.252.367.382.791.391 1.218a3.836 3.836 0 0 0-1.276-7.458zm-5.44 6.147-.679.679a.959.959 0 1 0 1.357 0l-.679-.679zm2.24 2.559-.679.679a.959.959 0 1 0 1.357 0l-.678-.679zm2.24-2.559-.679.679a.959.959 0 1 0 1.357 0l-.679-.679z"/></symbol><symbol id="icon-21" viewBox="0 0 32 32"><path d="M19.182 13.325a3.78 3.78 0 0 0-.651.066 5.117 5.117 0 1 0-6.971 6.957c.088-.404.285-.789.599-1.102l.018-.018a3.837 3.837 0 1 1 5.618-4.208c.4-.259.875-.413 1.387-.413a2.557 2.557 0 0 1 .885 4.959c.252.367.382.791.391 1.218a3.836 3.836 0 0 0-1.276-7.458zm-5.44 6.147-.679.679a.959.959 0 1 0 1.357 0l-.679-.679zm2.24 2.559-.679.679a.959.959 0 1 0 1.357 0l-.678-.679zm2.24-2.559-.679.679a.959.959 0 1 0 1.357 0l-.679-.679z"/></symbol><symbol id="icon-22" viewBox="0 0 32 32"><path d="m19.091 14.955-.627.362c.06.218.095.447.095.684s-.035.466-.095.684l.627.362a.64.64 0 1 1-.64 1.108l-.625-.361a2.563 2.563 0 0 1-1.186.683v.724a.64.64 0 0 1-1.28 0v-.724a2.554 2.554 0 0 1-1.186-.683l-.625.361a.64.64 0 1 1-.64-1.108l.627-.362c-.06-.218-.095-.447-.095-.684s.035-.466.095-.684l-.627-.362a.64.64 0 1 1 .64-1.108l.625.361a2.563 2.563 0 0 1 1.186-.683v-.724a.64.64 0 0 1 1.28 0v.724c.457.118.865.356 1.186.683l.625-.361a.64.64 0 1 1 .64 1.108zM16 14.72a1.28 1.28 0 1 0 0 2.56 1.28 1.28 0 0 0 0-2.56z"/></symbol><symbol id="icon-23" viewBox="0 0 32 32"><path d="M20.48 20.782V19.38a2.558 2.558 0 0 0-1.28-4.774c-.512 0-.987.154-1.387.413a3.836 3.836 0 1 0-6.292 3.723v1.573a5.113 5.113 0 0 1-2.56-4.429 5.12 5.12 0 0 1 9.588-2.495c.212-.036.428-.066.651-.066a3.84 3.84 0 0 1 3.84 3.839 3.84 3.84 0 0 1-2.56 3.617zm-7.04-2.337a.64.64 0 1 1 0 1.28.64.64 0 0 1 0-1.28zm0 2.56a.64.64 0 1 1 .001 1.279.64.64 0 0 1-.001-1.279zm2.56-1.28a.64.64 0 1 1 0 1.28.64.64 0 0 1 0-1.28zm0 2.559a.64.64 0 1 1-.001 1.281.64.64 0 0 1 .001-1.281zm2.56-3.839a.64.64 0 1 1 0 1.28.64.64 0 0 1 0-1.28zm0 2.56a.64.64 0 1 1 .001 1.279.64.64 0 0 1-.001-1.279z"/></symbol><symbol id="icon-24" viewBox="0 0 32 32"><path d="m19.091 14.955-.627.362c.06.218.095.447.095.684s-.035.466-.095.684l.627.362a.64.64 0 1 1-.64 1.108l-.625-.361a2.563 2.563 0 0 1-1.186.683v.724a.64.64 0 0 1-1.28 0v-.724a2.554 2.554 0 0 1-1.186-.683l-.625.361a.64.64 0 1 1-.64-1.108l.627-.362c-.06-.218-.095-.447-.095-.684s.035-.466.095-.684l-.627-.362a.64.64 0 1 1 .64-1.108l.625.361a2.563 2.563 0 0 1 1.186-.683v-.724a.64.64 0 0 1 1.28 0v.724c.457.118.865.356 1.186.683l.625-.361a.64.64 0 1 1 .64 1.108zM16 14.72a1.28 1.28 0 1 0 0 2.56 1.28 1.28 0 0 0 0-2.56z"/></symbol><symbol id="icon-25" viewBox="0 0 32 32"><path d="M19.839 20.948v-1.306a2.56 2.56 0 0 0 1.92-2.476 2.56 2.56 0 0 0-2.56-2.56c-.512 0-.987.154-1.387.413a3.835 3.835 0 0 0-7.572.867c0 1.42.773 2.658 1.92 3.321v1.422a5.119 5.119 0 1 1 6.389-7.239c.212-.036.428-.066.651-.066a3.838 3.838 0 0 1 .639 7.622zm-6.056-1.863a.64.64 0 0 1 .874-.234l.703.405v-.811a.64.64 0 0 1 1.28 0v.811l.702-.406a.64.64 0 0 1 .64 1.108l-.703.406.703.406a.64.64 0 1 1-.64 1.108l-.702-.405v.811a.64.64 0 1 1-1.28 0v-.811l-.702.406a.64.64 0 1 1-.64-1.108l.702-.406-.702-.406a.64.64 0 0 1-.235-.874zM16 21.005a.64.64 0 1 0-.001-1.281.64.64 0 0 0 .001 1.281z"/></symbol><symbol id="icon-26" viewBox="0 0 32 32"><path d="M20.48 20.781v-1.402a2.558 2.558 0 0 0-1.279-4.774c-.512 0-.987.154-1.387.413a3.836 3.836 0 0 0-3.733-2.973 3.84 3.84 0 0 0-3.839 3.839c0 1.136.496 2.153 1.28 2.856v1.573a5.114 5.114 0 0 1-2.559-4.429 5.12 5.12 0 0 1 9.588-2.494c.212-.036.428-.066.651-.066a3.84 3.84 0 0 1 3.839 3.84 3.836 3.836 0 0 1-2.56 3.616zm-7.039.223c-.353 0-.32-.286-.32-.639v-2.56c0-.353-.033-.64.32-.64s.32.287.32.64v2.56c0 .353.033.639-.32.639zm0 1.28a.64.64 0 1 1-.001 1.281.64.64 0 0 1 .001-1.281zm2.559 0c-.353 0-.32-.286-.32-.64v-2.559c0-.354-.033-.64.32-.64s.32.286.32.64v2.559c0 .354.033.64-.32.64zm0 1.28a.64.64 0 1 1 0 1.28.64.64 0 0 1 0-1.28zm2.56-2.56c-.353 0-.32-.286-.32-.639v-2.56c0-.353-.033-.64.32-.64s.32.287.32.64v2.56c0 .353.033.639-.32.639zm0 1.28a.64.64 0 1 1-.001 1.281.64.64 0 0 1 .001-1.281z"/></symbol><symbol id="icon-27" viewBox="0 0 32 32"><path d="M23.359 22.924a.64.64 0 1 1 0-1.28.64.64 0 0 1 0 1.28zm-2.88-2.143v-1.402a2.558 2.558 0 0 0-1.28-4.774c-.512 0-.987.154-1.387.413a3.835 3.835 0 1 0-6.292 3.722v1.573a5.113 5.113 0 0 1-2.56-4.429 5.12 5.12 0 0 1 9.588-2.494c.212-.036.428-.066.651-.066a3.84 3.84 0 0 1 3.839 3.84 3.836 3.836 0 0 1-2.56 3.616zM9.921 23.244a.64.64 0 1 1 0 1.28.64.64 0 0 1 0-1.28zm3.199-5.439c0-.353-.033-.64.32-.64s.32.287.32.64v7.679h-.64a1.28 1.28 0 0 0-1.28-1.28v-.64c.494 0 .94.192 1.28.498v-6.258zM16 22.284c-.353 0-.32-.286-.32-.64v-2.559c0-.354-.033-.64.32-.64s.32.286.32.64v2.559c0 .354.033.64-.32.64zm0 1.28a.64.64 0 1 1 0 1.28.64.64 0 0 1 0-1.28zm2.56-6.399c.353 0 .32.287.32.64v5.765a3.19 3.19 0 0 1 2.56-1.286v.64a2.56 2.56 0 0 0-2.56 2.56h-.64c0-.087.006-.173.013-.258-.017-.107-.013-.238-.013-.382v-7.039c0-.353-.033-.64.32-.64z"/></symbol><symbol id="icon-30" viewBox="0 0 32 32"><path d="M16 21.717a2.56 2.56 0 0 1-2.56-2.56c0-.648.243-1.238.64-1.689v-5.349a1.92 1.92 0 0 1 3.84 0v5.349A2.56 2.56 0 0 1 16 21.717zm.64-3.662v-5.936a.64.64 0 0 0-1.28 0v5.936a1.277 1.277 0 0 0 .64 2.382 1.276 1.276 0 0 0 .64-2.382zM16 20.117a.96.96 0 0 1-.96-.96c0-.418.268-.769.64-.901v-6.138a.32.32 0 1 1 .64 0v6.138a.957.957 0 0 1-.32 1.861z"/></symbol><symbol id="icon-31" viewBox="0 0 32 32"><path d="M16 21.759a2.56 2.56 0 0 1-2.56-2.56c0-.648.243-1.238.64-1.689v-5.35a1.92 1.92 0 0 1 3.84 0v5.35c.397.451.64 1.041.64 1.689a2.56 2.56 0 0 1-2.56 2.56zm.64-3.662V12.16a.64.64 0 0 0-1.28 0v5.937a1.275 1.275 0 0 0 .64 2.382 1.28 1.28 0 0 0 1.28-1.28c0-.473-.259-.881-.64-1.102zM16 20.159a.96.96 0 1 1 0-1.92.96.96 0 0 1 0 1.92z"/></symbol><symbol id="icon-32" viewBox="0 0 32 32"><path d="M21.12 16.64h-.96a.64.64 0 1 1 0-1.28h.96a.64.64 0 0 0 0-1.28.64.64 0 1 1 .129-1.267 1.915 1.915 0 0 1-.128 3.826zm-3.2-1.28h-7.039a.64.64 0 0 0 0 1.28h7.039a1.915 1.915 0 0 1 .129 3.827.64.64 0 1 0-.129-2.547h-7.039a1.915 1.915 0 0 1-.129-3.827.688.688 0 0 1 .129-.013h7.039a.64.64 0 1 0 0-1.28.64.64 0 1 1 .129-1.267 1.915 1.915 0 0 1-.129 3.827z"/></symbol><symbol id="icon-33" viewBox="0 0 32 32"><path d="M16 19.839a3.84 3.84 0 1 1 .706-7.611 2.56 2.56 0 0 0 3.065 3.065A3.84 3.84 0 0 1 16 19.839zm-.572-6.332a2.559 2.559 0 1 0 3.065 3.065 3.839 3.839 0 0 1-3.065-3.066z"/></symbol><symbol id="icon-34" viewBox="0 0 32 32"><path d="M16 19.839a3.84 3.84 0 1 1 .706-7.611 2.56 2.56 0 0 0 3.065 3.065A3.84 3.84 0 0 1 16 19.839zm-.572-6.332a2.559 2.559 0 1 0 3.065 3.065 3.839 3.839 0 0 1-3.065-3.066z"/></symbol><symbol id="icon-35" viewBox="0 0 32 32"><path d="M22.324 14.963a3.84 3.84 0 0 1-3.142 6.042h-5.119a5.119 5.119 0 1 1 1.818-9.903 3.838 3.838 0 0 1 3.622-2.575c.242 0 .477.025.706.068a2.56 2.56 0 0 0 3.065 3.065 3.824 3.824 0 0 1-.949 3.304zm-12.101.922a3.839 3.839 0 0 0 3.839 3.839h5.119a2.56 2.56 0 1 0 0-5.119c-.512 0-.987.154-1.387.413a3.835 3.835 0 0 0-7.571.867zm6.256-4.511h.001-.001zm2.451-1.502a2.557 2.557 0 0 0-1.896 1.848 5.159 5.159 0 0 1 1.498 1.67c.212-.036.428-.066.651-.066a3.82 3.82 0 0 1 2.242.727c.275-.313.475-.694.572-1.114a3.837 3.837 0 0 1-3.065-3.065z"/></symbol><symbol id="icon-36" viewBox="0 0 32 32"><path d="M22.324 14.963a3.84 3.84 0 0 1-3.142 6.042h-5.119a5.119 5.119 0 1 1 1.818-9.903 3.838 3.838 0 0 1 3.622-2.575c.242 0 .477.025.706.068a2.56 2.56 0 0 0 3.065 3.065 3.824 3.824 0 0 1-.949 3.304zm-12.101.922a3.839 3.839 0 0 0 3.839 3.839h5.119a2.56 2.56 0 1 0 0-5.119c-.512 0-.987.154-1.387.413a3.835 3.835 0 0 0-7.571.867zm6.256-4.511h.001-.001zm2.451-1.502a2.557 2.557 0 0 0-1.896 1.848 5.159 5.159 0 0 1 1.498 1.67c.212-.036.428-.066.651-.066a3.82 3.82 0 0 1 2.242.727c.275-.313.475-.694.572-1.114a3.837 3.837 0 0 1-3.065-3.065z"/></symbol><symbol id="icon-37" viewBox="0 0 32 32"><path d="M22.342 14.963c.197.282.353.593.47.923h-1.398a2.558 2.558 0 0 0-2.215-1.28c-.512 0-.986.154-1.387.413a3.836 3.836 0 0 0-3.733-2.973 3.84 3.84 0 0 0-3.839 3.84H8.96a5.12 5.12 0 0 1 6.937-4.784 3.836 3.836 0 0 1 4.329-2.507 2.559 2.559 0 0 0 3.065 3.065 3.824 3.824 0 0 1-.949 3.303zm-3.394-5.09a2.557 2.557 0 0 0-1.896 1.848 5.15 5.15 0 0 1 1.497 1.671c.212-.036.428-.066.651-.066.838 0 1.611.271 2.242.727.275-.314.475-.694.571-1.114a3.84 3.84 0 0 1-3.065-3.066zm-9.347 7.292H22.4a.64.64 0 0 1 0 1.28H9.601a.64.64 0 0 1 0-1.28zm0 2.56H22.4a.64.64 0 1 1 0 1.28H9.601a.64.64 0 0 1 0-1.28zm0 2.559H22.4a.64.64 0 0 1 0 1.28H9.601a.64.64 0 0 1 0-1.28z"/></symbol><symbol id="icon-38" viewBox="0 0 32 32"><path d="M22.324 14.963a3.84 3.84 0 0 1-3.142 6.042h-5.119a5.119 5.119 0 1 1 1.818-9.903 3.838 3.838 0 0 1 3.622-2.575c.242 0 .477.025.706.068a2.56 2.56 0 0 0 3.065 3.065 3.824 3.824 0 0 1-.949 3.304zm-12.101.922a3.839 3.839 0 0 0 3.839 3.839h5.119a2.56 2.56 0 1 0 0-5.119c-.512 0-.987.154-1.387.413a3.835 3.835 0 0 0-7.571.867zm6.256-4.511h.001-.001zm2.451-1.502a2.557 2.557 0 0 0-1.896 1.848 5.159 5.159 0 0 1 1.498 1.67c.212-.036.428-.066.651-.066a3.82 3.82 0 0 1 2.242.727c.275-.313.475-.694.572-1.114a3.837 3.837 0 0 1-3.065-3.065z"/></symbol><symbol id="icon-39" viewBox="0 0 32 32"><path d="M16 18.445a.64.64 0 0 0-.64.64v5.119a.64.64 0 1 0 1.28 0v-5.119a.64.64 0 0 0-.64-.64zm2.56-1.28a.64.64 0 0 0-.64.64v5.119a.64.64 0 1 0 1.28 0v-5.119a.64.64 0 0 0-.64-.64zm-5.12 0a.64.64 0 0 0-.64.64v5.119a.64.64 0 1 0 1.28 0v-5.119a.64.64 0 0 0-.64-.64zm9.919-4.8c0-.241-.025-.477-.068-.706a2.56 2.56 0 0 1-3.066-3.065 3.815 3.815 0 0 0-.706-.068 3.838 3.838 0 0 0-3.622 2.575 5.12 5.12 0 0 0-6.937 4.784 5.112 5.112 0 0 0 2.56 4.429v-1.573a3.825 3.825 0 0 1-1.28-2.856 3.835 3.835 0 0 1 7.572-.866c.4-.26.875-.413 1.387-.413a2.56 2.56 0 0 1 1.28 4.774v1.402a3.837 3.837 0 0 0 2.56-3.616c0-.82-.26-1.579-.698-2.202a3.82 3.82 0 0 0 1.017-2.597zm-1.917 1.687a3.813 3.813 0 0 0-2.242-.727 3.78 3.78 0 0 0-.651.066 5.15 5.15 0 0 0-1.497-1.671 2.557 2.557 0 0 1 1.896-1.848 3.84 3.84 0 0 0 3.065 3.066c-.096.42-.297.8-.571 1.114z"/></symbol><symbol id="icon-40" viewBox="0 0 32 32"><path d="M16 18.445a.64.64 0 0 0-.64.64v5.119a.64.64 0 1 0 1.28 0v-5.119a.64.64 0 0 0-.64-.64zm2.56-1.28a.64.64 0 0 0-.64.64v5.119a.64.64 0 1 0 1.28 0v-5.119a.64.64 0 0 0-.64-.64zm-5.12 0a.64.64 0 0 0-.64.64v5.119a.64.64 0 1 0 1.28 0v-5.119a.64.64 0 0 0-.64-.64zm9.919-4.8c0-.241-.025-.477-.068-.706a2.56 2.56 0 0 1-3.066-3.065 3.815 3.815 0 0 0-.706-.068 3.838 3.838 0 0 0-3.622 2.575 5.12 5.12 0 0 0-6.937 4.784 5.112 5.112 0 0 0 2.56 4.429v-1.573a3.825 3.825 0 0 1-1.28-2.856 3.835 3.835 0 0 1 7.572-.866c.4-.26.875-.413 1.387-.413a2.56 2.56 0 0 1 1.28 4.774v1.402a3.837 3.837 0 0 0 2.56-3.616c0-.82-.26-1.579-.698-2.202a3.82 3.82 0 0 0 1.017-2.597zm-1.917 1.687a3.813 3.813 0 0 0-2.242-.727 3.78 3.78 0 0 0-.651.066 5.15 5.15 0 0 0-1.497-1.671 2.557 2.557 0 0 1 1.896-1.848 3.84 3.84 0 0 0 3.065 3.066c-.096.42-.297.8-.571 1.114z"/></symbol><symbol id="icon-41" viewBox="0 0 32 32"><path d="M22.342 14.963c.321.458.544.989.641 1.563h-.001c.035.209.058.421.058.64a3.84 3.84 0 0 1-3.84 3.84h-.34l1.147-1.412a2.559 2.559 0 0 0 1.753-2.428c0-.221-.031-.435-.084-.64a2.56 2.56 0 0 0-2.476-1.92c-.512 0-.986.154-1.387.413a3.836 3.836 0 0 0-3.733-2.973 3.84 3.84 0 0 0-3.839 3.84c0 .219.022.431.058.64h-.004a3.845 3.845 0 0 0 2.7 3.042l-.432 1.209a5.12 5.12 0 0 1-3.557-4.251 5.184 5.184 0 0 1-.044-.64 5.119 5.119 0 0 1 6.937-4.784 3.836 3.836 0 0 1 4.329-2.507 2.56 2.56 0 0 0 3.065 3.066 3.824 3.824 0 0 1-.949 3.303zm-3.394-5.09a2.557 2.557 0 0 0-1.896 1.848 5.15 5.15 0 0 1 1.497 1.671c.212-.036.428-.066.651-.066.838 0 1.611.271 2.242.727.275-.313.475-.694.571-1.114a3.84 3.84 0 0 1-3.065-3.066zm-3.588 6.652h3.2l-1.92 3.2h2.24l-4.16 5.119 1.152-3.839H13.76l1.6-4.48z"/></symbol><symbol id="icon-42" viewBox="0 0 32 32"><path d="M22.342 14.963c.321.458.544.989.641 1.563h-.001c.035.209.058.421.058.64a3.84 3.84 0 0 1-3.84 3.84h-.34l1.147-1.412a2.559 2.559 0 0 0 1.753-2.428c0-.221-.031-.435-.084-.64a2.56 2.56 0 0 0-2.476-1.92c-.512 0-.986.154-1.387.413a3.836 3.836 0 0 0-3.733-2.973 3.84 3.84 0 0 0-3.839 3.84c0 .219.022.431.058.64h-.004a3.845 3.845 0 0 0 2.7 3.042l-.432 1.209a5.12 5.12 0 0 1-3.557-4.251 5.184 5.184 0 0 1-.044-.64 5.119 5.119 0 0 1 6.937-4.784 3.836 3.836 0 0 1 4.329-2.507 2.56 2.56 0 0 0 3.065 3.066 3.824 3.824 0 0 1-.949 3.303zm-3.394-5.09a2.557 2.557 0 0 0-1.896 1.848 5.15 5.15 0 0 1 1.497 1.671c.212-.036.428-.066.651-.066.838 0 1.611.271 2.242.727.275-.313.475-.694.571-1.114a3.84 3.84 0 0 1-3.065-3.066zm-3.588 6.652h3.2l-1.92 3.2h2.24l-4.16 5.119 1.152-3.839H13.76l1.6-4.48z"/></symbol><symbol id="icon-43" viewBox="0 0 32 32"><path d="M22.342 14.963a3.82 3.82 0 0 1 .698 2.202 3.838 3.838 0 0 1-2.56 3.617V19.38a2.558 2.558 0 0 0-1.28-4.775c-.512 0-.987.154-1.387.413a3.836 3.836 0 0 0-3.733-2.973 3.84 3.84 0 0 0-3.839 3.84c0 1.136.496 2.153 1.28 2.856v1.573a5.115 5.115 0 0 1 2.559-9.549c.641 0 1.252.12 1.818.335a3.838 3.838 0 0 1 3.622-2.575c.242 0 .477.025.707.068a2.559 2.559 0 0 0 3.065 3.065 3.82 3.82 0 0 1-.95 3.304zm-3.394-5.09a2.557 2.557 0 0 0-1.896 1.848 5.15 5.15 0 0 1 1.497 1.671c.212-.036.428-.066.651-.066.838 0 1.611.271 2.242.727a2.55 2.55 0 0 0 .572-1.114 3.84 3.84 0 0 1-3.065-3.066zm-5.165 9.212a.64.64 0 0 1 .874-.234l.703.406v-.811a.64.64 0 0 1 1.28 0v.811l.703-.406a.64.64 0 0 1 .64 1.108l-.702.406.703.406a.64.64 0 1 1-.64 1.108l-.703-.405v.811a.64.64 0 1 1-1.28 0v-.811l-.703.406a.64.64 0 1 1-.64-1.108l.703-.406-.703-.406a.64.64 0 0 1-.234-.875zM16 21.005a.64.64 0 1 0-.001-1.281.64.64 0 0 0 .001 1.281z"/></symbol><symbol id="icon-44" viewBox="0 0 32 32"><path d="M22.341 14.963a3.82 3.82 0 0 1 .698 2.202 3.839 3.839 0 0 1-2.559 3.617V19.38a2.558 2.558 0 0 0-1.28-4.775c-.512 0-.987.154-1.387.413a3.835 3.835 0 1 0-6.291 3.723v1.573a5.113 5.113 0 0 1-2.56-4.429 5.12 5.12 0 0 1 6.937-4.785 3.838 3.838 0 0 1 3.622-2.575c.242 0 .477.025.706.068a2.559 2.559 0 0 0 3.065 3.065 3.82 3.82 0 0 1-.95 3.304zm-3.394-5.09a2.557 2.557 0 0 0-1.896 1.848 5.152 5.152 0 0 1 1.498 1.671c.212-.036.428-.066.651-.066.837 0 1.611.271 2.242.727.275-.314.475-.693.572-1.114a3.842 3.842 0 0 1-3.066-3.066zm-5.507 8.572a.64.64 0 1 1-.001 1.281.64.64 0 0 1 .001-1.281zm0 2.56a.64.64 0 1 1 0 1.28.64.64 0 0 1 0-1.28zm2.56-1.28a.64.64 0 1 1 0 1.28.64.64 0 0 1 0-1.28zm0 2.559a.64.64 0 1 1-.001 1.281.64.64 0 0 1 .001-1.281zm2.56-3.839a.64.64 0 1 1-.001 1.281.64.64 0 0 1 .001-1.281zm0 2.56a.64.64 0 1 1 0 1.28.64.64 0 0 1 0-1.28z"/></symbol></defs></svg>