<svg aria-hidden="true" style="position: absolute; width: 0; height: 0; overflow: hidden;" version="1.1" xmlns="http://www.w3.org/2000/svg" xmlns:xlink="http://www.w3.org/1999/xlink">
<defs>
<symbol id="icon-1" viewBox="0 0 32 32">
<path d="M23.039 16.64h-1.279c-0.354 0-0.64-0.286-0.64-0.64s0.286-0.64 0.64-0.64h1.279c0.354 0 0.64 0.287 0.64 0.64s-0.286 0.64-0.64 0.64zM20.525 12.38c-0.25 0.25-0.656 0.25-0.905 0s-0.25-0.655 0-0.905l0.905-0.905c0.249-0.25 0.655-0.25 0.905 0s0.249 0.655 0 0.905l-0.905 0.905zM16 19.839c-2.121 0-3.84-1.719-3.84-3.839s1.719-3.84 3.84-3.84c2.121 0 3.839 1.719 3.839 3.84s-1.719 3.839-3.839 3.839zM16 13.44c-1.414 0-2.56 1.146-2.56 2.56s1.147 2.56 2.56 2.56 2.559-1.146 2.559-2.56c0-1.414-1.146-2.56-2.559-2.56zM16 10.881c-0.354 0-0.64-0.287-0.64-0.64v-1.28c0-0.353 0.286-0.64 0.64-0.64s0.64 0.287 0.64 0.64v1.28c0 0.353-0.287 0.64-0.64 0.64zM11.475 12.38l-0.905-0.905c-0.25-0.25-0.25-0.655 0-0.905s0.655-0.25 0.905 0l0.905 0.905c0.25 0.25 0.25 0.655 0 0.905s-0.655 0.25-0.905 0zM10.881 16c0 0.353-0.287 0.64-0.64 0.64h-1.28c-0.353 0-0.64-0.286-0.64-0.64s0.287-0.64 0.64-0.64h1.28c0.354 0 0.64 0.287 0.64 0.64zM11.475 19.62c0.25-0.25 0.655-0.25 0.905 0s0.25 0.655 0 0.905l-0.905 0.905c-0.25 0.25-0.655 0.25-0.905 0s-0.25-0.655 0-0.905l0.905-0.905zM16 21.119c0.353 0 0.64 0.286 0.64 0.64v1.28c0 0.353-0.287 0.64-0.64 0.64s-0.64-0.287-0.64-0.64v-1.28c0-0.353 0.286-0.64 0.64-0.64zM20.525 19.62l0.905 0.905c0.249 0.25 0.249 0.655 0 0.905s-0.656 0.25-0.905 0l-0.905-0.905c-0.25-0.25-0.25-0.655 0-0.905s0.655-0.25 0.905 0z"></path>
</symbol>
<symbol id="icon-2" viewBox="0 0 32 32">
<path d="M25.581 13.965h-1.28c-0.353 0-0.64-0.286-0.64-0.64s0.287-0.639 0.64-0.639h1.28c0.353 0 0.64 0.286 0.64 0.639s-0.287 0.64-0.64 0.64zM23.067 9.705c-0.25 0.25-0.655 0.25-0.905 0s-0.25-0.655 0-0.905l0.905-0.905c0.25-0.25 0.655-0.25 0.905 0s0.25 0.655 0 0.905l-0.905 0.905zM22.124 14.7v0c0.56 0.668 0.898 1.526 0.898 2.466 0 2.12-1.719 3.839-3.84 3.839-0.888 0-4.096 0-5.119 0-2.827 0-5.119-2.292-5.119-5.119s2.292-5.119 5.119-5.119c0.503 0 0.989 0.074 1.447 0.209 0.702-0.905 1.798-1.489 3.032-1.489 2.121 0 3.84 1.719 3.84 3.839-0 0.485-0.094 0.948-0.258 1.374zM10.223 15.885c0 2.121 1.719 3.839 3.839 3.839 1.157 0 4.153 0 5.119 0 1.414 0 2.56-1.146 2.56-2.559s-1.146-2.56-2.56-2.56c-0.512 0-0.987 0.154-1.387 0.413-0.394-1.701-1.912-2.972-3.733-2.972-2.121 0-3.839 1.719-3.839 3.839zM18.542 10.766c-0.708 0-1.349 0.287-1.812 0.752 0.749 0.46 1.371 1.105 1.801 1.873 0.212-0.036 0.428-0.066 0.651-0.066 0.68 0 1.318 0.179 1.872 0.489v0c0.031-0.158 0.048-0.321 0.048-0.489 0-1.413-1.146-2.559-2.56-2.559zM18.542 8.206c-0.353 0-0.64-0.286-0.64-0.64v-1.28c0-0.354 0.287-0.64 0.64-0.64s0.64 0.286 0.64 0.64v1.28c0 0.354-0.286 0.64-0.64 0.64zM14.017 9.705l-0.905-0.905c-0.25-0.25-0.25-0.655 0-0.905s0.655-0.25 0.905 0l0.905 0.905c0.25 0.25 0.25 0.655 0 0.905s-0.655 0.25-0.905 0z"></path>
</symbol>
<symbol id="icon-3" viewBox="0 0 32 32">
<path d="M25.581 13.965h-1.28c-0.353 0-0.64-0.286-0.64-0.64s0.287-0.639 0.64-0.639h1.28c0.353 0 0.64 0.286 0.64 0.639s-0.287 0.64-0.64 0.64zM23.067 9.705c-0.25 0.25-0.655 0.25-0.905 0s-0.25-0.655 0-0.905l0.905-0.905c0.25-0.25 0.655-0.25 0.905 0s0.25 0.655 0 0.905l-0.905 0.905zM22.124 14.7v0c0.56 0.668 0.898 1.526 0.898 2.466 0 2.12-1.719 3.839-3.84 3.839-0.888 0-4.096 0-5.119 0-2.827 0-5.119-2.292-5.119-5.119s2.292-5.119 5.119-5.119c0.503 0 0.989 0.074 1.447 0.209 0.702-0.905 1.798-1.489 3.032-1.489 2.121 0 3.84 1.719 3.84 3.839-0 0.485-0.094 0.948-0.258 1.374zM10.223 15.885c0 2.121 1.719 3.839 3.839 3.839 1.157 0 4.153 0 5.119 0 1.414 0 2.56-1.146 2.56-2.559s-1.146-2.56-2.56-2.56c-0.512 0-0.987 0.154-1.387 0.413-0.394-1.701-1.912-2.972-3.733-2.972-2.121 0-3.839 1.719-3.839 3.839zM18.542 10.766c-0.708 0-1.349 0.287-1.812 0.752 0.749 0.46 1.371 1.105 1.801 1.873 0.212-0.036 0.428-0.066 0.651-0.066 0.68 0 1.318 0.179 1.872 0.489v0c0.031-0.158 0.048-0.321 0.048-0.489 0-1.413-1.146-2.559-2.56-2.559zM18.542 8.206c-0.353 0-0.64-0.286-0.64-0.64v-1.28c0-0.354 0.287-0.64 0.64-0.64s0.64 0.286 0.64 0.64v1.28c0 0.354-0.286 0.64-0.64 0.64zM14.017 9.705l-0.905-0.905c-0.25-0.25-0.25-0.655 0-0.905s0.655-0.25 0.905 0l0.905 0.905c0.25 0.25 0.25 0.655 0 0.905s-0.655 0.25-0.905 0z"></path>
</symbol>
<symbol id="icon-4" viewBox="0 0 32 32">
<path d="M25.581 13.965h-1.28c-0.353 0-0.64-0.286-0.64-0.64s0.287-0.639 0.64-0.639h1.28c0.353 0 0.64 0.286 0.64 0.639s-0.287 0.64-0.64 0.64zM23.067 9.705c-0.25 0.25-0.655 0.25-0.905 0s-0.25-0.655 0-0.905l0.905-0.905c0.25-0.25 0.655-0.25 0.905 0s0.25 0.655 0 0.905l-0.905 0.905zM22.124 14.7v0c0.56 0.668 0.898 1.526 0.898 2.466 0 2.12-1.719 3.839-3.84 3.839-0.888 0-4.096 0-5.119 0-2.827 0-5.119-2.292-5.119-5.119s2.292-5.119 5.119-5.119c0.503 0 0.989 0.074 1.447 0.209 0.702-0.905 1.798-1.489 3.032-1.489 2.121 0 3.84 1.719 3.84 3.839-0 0.485-0.094 0.948-0.258 1.374zM10.223 15.885c0 2.121 1.719 3.839 3.839 3.839 1.157 0 4.153 0 5.119 0 1.414 0 2.56-1.146 2.56-2.559s-1.146-2.56-2.56-2.56c-0.512 0-0.987 0.154-1.387 0.413-0.394-1.701-1.912-2.972-3.733-2.972-2.121 0-3.839 1.719-3.839 3.839zM18.542 10.766c-0.708 0-1.349 0.287-1.812 0.752 0.749 0.46 1.371 1.105 1.801 1.873 0.212-0.036 0.428-0.066 0.651-0.066 0.68 0 1.318 0.179 1.872 0.489v0c0.031-0.158 0.048-0.321 0.048-0.489 0-1.413-1.146-2.559-2.56-2.559zM18.542 8.206c-0.353 0-0.64-0.286-0.64-0.64v-1.28c0-0.354 0.287-0.64 0.64-0.64s0.64 0.286 0.64 0.64v1.28c0 0.354-0.286 0.64-0.64 0.64zM14.017 9.705l-0.905-0.905c-0.25-0.25-0.25-0.655 0-0.905s0.655-0.25 0.905 0l0.905 0.905c0.25 0.25 0.25 0.655 0 0.905s-0.655 0.25-0.905 0z"></path>
</symbol>
<symbol id="icon-5" viewBox="0 0 32 32">
<path d="M25.599 13.965h-1.28c-0.353 0-0.64-0.286-0.64-0.64s0.287-0.64 0.64-0.64h1.28c0.353 0 0.64 0.287 0.64 0.64s-0.286 0.64-0.64 0.64zM23.085 9.706c-0.25 0.25-0.655 0.25-0.905 0s-0.25-0.655 0-0.905l0.905-0.905c0.25-0.25 0.655-0.25 0.905 0s0.25 0.655 0 0.905l-0.905 0.905zM22.141 14.7v0c0.292 0.348 0.522 0.749 0.676 1.186h-1.404c-0.443-0.764-1.268-1.28-2.214-1.28-0.512 0-0.987 0.154-1.387 0.413-0.394-1.701-1.911-2.973-3.732-2.973-2.121 0-3.84 1.719-3.84 3.84h-1.28c0-2.828 2.292-5.12 5.119-5.12 0.503 0 0.988 0.074 1.447 0.21 0.702-0.905 1.798-1.489 3.032-1.489 2.121 0 3.84 1.719 3.84 3.839 0 0.485-0.093 0.947-0.258 1.374zM18.56 10.766c-0.708 0-1.349 0.287-1.812 0.752 0.749 0.459 1.371 1.105 1.801 1.873 0.212-0.036 0.428-0.066 0.651-0.066 0.68 0 1.318 0.179 1.872 0.489v0c0.031-0.158 0.048-0.321 0.048-0.489 0-1.414-1.146-2.56-2.56-2.56zM18.56 8.206c-0.353 0-0.64-0.286-0.64-0.64v-1.28c0-0.353 0.287-0.64 0.64-0.64s0.64 0.287 0.64 0.64v1.28c0 0.354-0.286 0.64-0.64 0.64zM14.035 9.706l-0.905-0.905c-0.25-0.25-0.25-0.655 0-0.905s0.655-0.25 0.905 0l0.905 0.905c0.25 0.25 0.25 0.655 0 0.905s-0.655 0.25-0.905 0zM9.601 17.165h12.798c0.353 0 0.64 0.287 0.64 0.64s-0.287 0.64-0.64 0.64h-12.798c-0.353 0-0.64-0.286-0.64-0.64s0.286-0.64 0.64-0.64zM9.601 19.725h12.798c0.353 0 0.64 0.286 0.64 0.64s-0.287 0.64-0.64 0.64h-12.798c-0.353 0-0.64-0.287-0.64-0.64s0.286-0.64 0.64-0.64zM9.601 22.284h12.798c0.353 0 0.64 0.287 0.64 0.64s-0.287 0.64-0.64 0.64h-12.798c-0.353 0-0.64-0.286-0.64-0.64s0.286-0.64 0.64-0.64z"></path>
</symbol>
<symbol id="icon-6" viewBox="0 0 32 32">
<path d="M14.062 21.004c-2.827 0-5.119-2.292-5.119-5.119s2.292-5.119 5.119-5.119c1.921 0 3.593 1.060 4.469 2.625 0.212-0.036 0.428-0.066 0.651-0.066 2.121 0 3.84 1.719 3.84 3.84s-1.719 3.839-3.84 3.839c-0.888 0-4.096 0-5.119 0zM19.182 19.724c1.414 0 2.56-1.146 2.56-2.559s-1.146-2.56-2.56-2.56c-0.512 0-0.986 0.154-1.387 0.413-0.394-1.701-1.912-2.973-3.733-2.973-2.12 0-3.839 1.719-3.839 3.84s1.719 3.839 3.839 3.839c1.157 0 4.153 0 5.119 0z"></path>
</symbol>
<symbol id="icon-7" viewBox="0 0 32 32">
<path d="M14.062 21.004c-2.827 0-5.119-2.292-5.119-5.119s2.292-5.119 5.119-5.119c1.921 0 3.593 1.060 4.469 2.625 0.212-0.036 0.428-0.066 0.651-0.066 2.121 0 3.84 1.719 3.84 3.84s-1.719 3.839-3.84 3.839c-0.888 0-4.096 0-5.119 0zM19.182 19.724c1.414 0 2.56-1.146 2.56-2.559s-1.146-2.56-2.56-2.56c-0.512 0-0.986 0.154-1.387 0.413-0.394-1.701-1.912-2.973-3.733-2.973-2.12 0-3.839 1.719-3.839 3.84s1.719 3.839 3.839 3.839c1.157 0 4.153 0 5.119 0z"></path>
</symbol>
<symbol id="icon-8" viewBox="0 0 32 32">
<path d="M14.062 21.004c-2.827 0-5.119-2.292-5.119-5.119s2.292-5.119 5.119-5.119c1.921 0 3.593 1.060 4.469 2.625 0.212-0.036 0.428-0.066 0.651-0.066 2.121 0 3.84 1.719 3.84 3.84s-1.719 3.839-3.84 3.839c-0.888 0-4.096 0-5.119 0zM19.182 19.724c1.414 0 2.56-1.146 2.56-2.559s-1.146-2.56-2.56-2.56c-0.512 0-0.986 0.154-1.387 0.413-0.394-1.701-1.912-2.973-3.733-2.973-2.12 0-3.839 1.719-3.839 3.84s1.719 3.839 3.839 3.839c1.157 0 4.153 0 5.119 0z"></path>
</symbol>
<symbol id="icon-11" viewBox="0 0 32 32">
<path d="M22.399 21.005h-12.798c-0.353 0-0.64-0.287-0.64-0.64s0.287-0.64 0.64-0.64h12.798c0.353 0 0.64 0.286 0.64 0.64s-0.286 0.64-0.64 0.64zM22.399 18.445h-12.798c-0.353 0-0.64-0.286-0.64-0.64s0.287-0.64 0.64-0.64h12.798c0.353 0 0.64 0.287 0.64 0.64s-0.286 0.64-0.64 0.64zM19.2 14.606c-0.512 0-0.987 0.154-1.387 0.413-0.394-1.701-1.912-2.973-3.733-2.973-2.12 0-3.839 1.719-3.839 3.84h-1.28c0-2.827 2.292-5.12 5.119-5.12 1.921 0 3.593 1.060 4.469 2.625 0.212-0.036 0.428-0.066 0.651-0.066 1.671 0 3.089 1.069 3.616 2.56h-1.402c-0.443-0.765-1.268-1.28-2.214-1.28zM9.601 22.284h12.798c0.353 0 0.64 0.287 0.64 0.64s-0.287 0.64-0.64 0.64h-12.798c-0.353 0-0.64-0.286-0.64-0.64s0.286-0.64 0.64-0.64z"></path>
</symbol>
<symbol id="icon-12" viewBox="0 0 32 32">
<path d="M19.2 21.005c-0.085 0-0.196 0-0.32 0 0-0.439-0.102-0.877-0.302-1.28 0.249 0 0.464 0 0.622 0 1.414 0 2.56-1.146 2.56-2.559s-1.146-2.56-2.56-2.56c-0.512 0-0.987 0.154-1.387 0.413-0.394-1.701-1.911-2.972-3.732-2.972-2.121 0-3.839 1.719-3.839 3.839 0 1.905 1.388 3.481 3.207 3.783-0.204 0.389-0.31 0.816-0.324 1.244-2.37-0.448-4.164-2.526-4.164-5.027 0-2.827 2.292-5.119 5.119-5.119 1.921 0 3.593 1.060 4.469 2.625 0.212-0.036 0.428-0.066 0.651-0.066 2.121 0 3.839 1.719 3.839 3.84s-1.718 3.839-3.839 3.839zM16 18.742l1.131 1.131c0.624 0.625 0.624 1.638 0 2.262s-1.638 0.625-2.262 0c-0.625-0.625-0.625-1.637 0-2.262l1.131-1.131z"></path>
</symbol>
<symbol id="icon-13" viewBox="0 0 32 32">
<path d="M25.581 13.965h-1.28c-0.353 0-0.64-0.286-0.64-0.64s0.287-0.64 0.64-0.64h1.28c0.353 0 0.64 0.287 0.64 0.64s-0.287 0.64-0.64 0.64zM23.067 9.706c-0.25 0.25-0.655 0.25-0.905 0s-0.25-0.655 0-0.905l0.905-0.905c0.25-0.25 0.655-0.25 0.905 0s0.25 0.655 0 0.905l-0.905 0.905zM22.124 14.7v0c0.56 0.667 0.898 1.526 0.898 2.465 0 1.671-1.069 3.089-2.559 3.616v-1.402c0.764-0.443 1.28-1.268 1.28-2.214 0-1.413-1.146-2.56-2.56-2.56-0.512 0-0.987 0.154-1.387 0.413-0.394-1.701-1.911-2.973-3.732-2.973-2.121 0-3.839 1.719-3.839 3.839 0 1.136 0.496 2.153 1.28 2.856v1.573c-1.529-0.886-2.56-2.535-2.56-4.429 0-2.827 2.292-5.119 5.119-5.119 0.503 0 0.989 0.074 1.447 0.209 0.702-0.905 1.797-1.489 3.032-1.489 2.121 0 3.839 1.719 3.839 3.839-0 0.485-0.093 0.947-0.258 1.374zM18.542 10.766c-0.708 0-1.349 0.287-1.812 0.752 0.749 0.459 1.371 1.105 1.801 1.873 0.212-0.036 0.428-0.066 0.651-0.066 0.68 0 1.318 0.179 1.872 0.489v0c0.031-0.158 0.048-0.321 0.048-0.489 0-1.414-1.146-2.56-2.56-2.56zM18.542 8.206c-0.353 0-0.64-0.286-0.64-0.64v-1.28c0-0.353 0.287-0.64 0.64-0.64s0.64 0.286 0.64 0.64v1.28c0 0.354-0.286 0.64-0.64 0.64zM14.017 9.706l-0.905-0.905c-0.249-0.25-0.249-0.655 0-0.905s0.656-0.25 0.905 0l0.905 0.905c0.25 0.25 0.25 0.655 0 0.905s-0.655 0.25-0.905 0zM13.422 17.165c0.354 0 0.64 0.287 0.64 0.64v5.119c0 0.354-0.286 0.64-0.64 0.64s-0.64-0.286-0.64-0.64v-5.119c0-0.353 0.287-0.64 0.64-0.64zM15.982 18.445c0.353 0 0.64 0.286 0.64 0.64v5.119c0 0.353-0.287 0.64-0.64 0.64s-0.64-0.287-0.64-0.64v-5.119c0-0.354 0.286-0.64 0.64-0.64zM18.542 17.165c0.354 0 0.64 0.287 0.64 0.64v5.119c0 0.354-0.286 0.64-0.64 0.64s-0.64-0.286-0.64-0.64v-5.119c0-0.353 0.287-0.64 0.64-0.64z"></path>
</symbol>
<symbol id="icon-14" viewBox="0 0 32 32">
<path d="M25.599 13.965h-1.28c-0.353 0-0.64-0.286-0.64-0.64s0.287-0.64 0.64-0.64h1.28c0.353 0 0.64 0.287 0.64 0.64s-0.286 0.64-0.64 0.64zM23.085 9.706c-0.25 0.25-0.655 0.25-0.905 0s-0.25-0.655 0-0.905l0.905-0.905c0.25-0.25 0.655-0.25 0.905 0s0.25 0.655 0 0.905l-0.905 0.905zM22.141 14.7v0c0.559 0.667 0.898 1.526 0.898 2.465v0c0 2.121-1.719 3.839-3.839 3.839-0.085 0-0.196 0-0.32 0 0-0.439-0.102-0.877-0.302-1.279 0.249 0 0.464 0 0.622 0 1.414 0 2.56-1.146 2.56-2.56s-1.146-2.559-2.56-2.559c-0.512 0-0.987 0.154-1.387 0.413-0.394-1.702-1.911-2.973-3.732-2.973-2.121 0-3.839 1.719-3.839 3.839 0 0.45 0.081 0.879 0.223 1.28h-0.002c0.46 1.297 1.596 2.273 2.986 2.504-0.204 0.389-0.31 0.815-0.324 1.244-1.951-0.369-3.508-1.843-3.999-3.748h0.004c-0.106-0.409-0.168-0.837-0.168-1.28 0-2.827 2.292-5.119 5.119-5.119 0.503 0 0.988 0.074 1.447 0.209 0.702-0.905 1.797-1.489 3.032-1.489 2.121 0 3.839 1.719 3.839 3.839 0 0.485-0.093 0.947-0.258 1.375zM18.56 10.766c-0.708 0-1.349 0.287-1.812 0.752 0.749 0.459 1.371 1.105 1.801 1.873 0.212-0.036 0.428-0.066 0.651-0.066 0.68 0 1.318 0.179 1.872 0.489v0c0.031-0.158 0.048-0.321 0.048-0.489 0-1.414-1.146-2.56-2.56-2.56zM18.56 8.206c-0.353 0-0.64-0.286-0.64-0.64v-1.28c0-0.353 0.287-0.64 0.64-0.64s0.64 0.286 0.64 0.64v1.28c0 0.354-0.286 0.64-0.64 0.64zM14.035 9.706l-0.905-0.905c-0.25-0.25-0.25-0.655 0-0.905s0.655-0.25 0.905 0l0.905 0.905c0.25 0.25 0.25 0.655 0 0.905s-0.655 0.25-0.905 0zM16 18.742l1.131 1.131c0.625 0.624 0.625 1.637 0 2.262s-1.638 0.625-2.262 0c-0.625-0.624-0.625-1.637 0-2.262l1.131-1.131z"></path>
</symbol>
<symbol id="icon-15" viewBox="0 0 32 32">
<path d="M19.2 21.005c-0.090 0-0.208 0-0.34 0l1.147-1.412c1.018-0.338 1.753-1.297 1.753-2.428 0-1.414-1.146-2.559-2.56-2.559-0.512 0-0.987 0.154-1.387 0.413-0.394-1.701-1.912-2.973-3.733-2.973-2.12 0-3.839 1.719-3.839 3.84 0 1.743 1.162 3.212 2.753 3.681l-0.432 1.209c-2.086-0.647-3.602-2.591-3.602-4.89 0-2.827 2.292-5.12 5.119-5.12 1.921 0 3.593 1.060 4.469 2.625 0.212-0.036 0.428-0.066 0.651-0.066 2.121 0 3.84 1.719 3.84 3.839s-1.719 3.84-3.84 3.84zM15.36 16.525h3.199l-1.92 3.2h2.24l-4.159 5.119 1.152-3.839h-2.112l1.6-4.48z"></path>
</symbol>
<symbol id="icon-16" viewBox="0 0 32 32">
<path d="M19.2 21.005c-0.090 0-0.208 0-0.34 0l1.147-1.412c1.018-0.338 1.753-1.297 1.753-2.428 0-1.414-1.146-2.559-2.56-2.559-0.512 0-0.987 0.154-1.387 0.413-0.394-1.701-1.912-2.973-3.733-2.973-2.12 0-3.839 1.719-3.839 3.84 0 1.743 1.162 3.212 2.753 3.681l-0.432 1.209c-2.086-0.647-3.602-2.591-3.602-4.89 0-2.827 2.292-5.12 5.119-5.12 1.921 0 3.593 1.060 4.469 2.625 0.212-0.036 0.428-0.066 0.651-0.066 2.121 0 3.84 1.719 3.84 3.839s-1.719 3.84-3.84 3.84zM15.36 16.525h3.199l-1.92 3.2h2.24l-4.159 5.119 1.152-3.839h-2.112l1.6-4.48z"></path>
</symbol>
<symbol id="icon-17" viewBox="0 0 32 32">
<path d="M25.599 13.965h-1.28c-0.353 0-0.64-0.286-0.64-0.64s0.287-0.64 0.64-0.64h1.28c0.353 0 0.64 0.287 0.64 0.64s-0.286 0.64-0.64 0.64zM23.085 9.706c-0.25 0.25-0.655 0.25-0.905 0s-0.25-0.655 0-0.905l0.905-0.905c0.25-0.25 0.655-0.25 0.905 0s0.25 0.655 0 0.905l-0.905 0.905zM22.141 14.7v0c0.429 0.512 0.727 1.138 0.843 1.825h-0.003c0.035 0.209 0.058 0.422 0.058 0.64 0 2.121-1.719 3.84-3.839 3.84-0.090 0-0.208 0-0.34 0l1.147-1.412c1.018-0.338 1.753-1.297 1.753-2.428 0-0.221-0.031-0.435-0.084-0.64v0c-0.284-1.103-1.284-1.92-2.476-1.92-0.512 0-0.987 0.154-1.387 0.413-0.394-1.701-1.911-2.973-3.732-2.973-2.121 0-3.84 1.719-3.84 3.84 0 0.218 0.022 0.431 0.058 0.64h-0.004c0.244 1.456 1.308 2.631 2.7 3.042l-0.432 1.209c-1.889-0.586-3.306-2.237-3.557-4.251v0c-0.026-0.21-0.044-0.423-0.044-0.64 0-2.828 2.292-5.12 5.119-5.12 0.503 0 0.988 0.074 1.447 0.21 0.702-0.905 1.798-1.489 3.032-1.489 2.121 0 3.84 1.719 3.84 3.839-0 0.485-0.094 0.947-0.258 1.374zM18.56 10.766c-0.708 0-1.349 0.287-1.812 0.752 0.749 0.459 1.371 1.104 1.801 1.873 0.212-0.036 0.428-0.066 0.651-0.066 0.68 0 1.318 0.179 1.872 0.489v0c0.031-0.158 0.048-0.321 0.048-0.489 0-1.414-1.146-2.56-2.56-2.56zM18.56 8.206c-0.353 0-0.64-0.287-0.64-0.64v-1.28c0-0.353 0.287-0.64 0.64-0.64s0.64 0.287 0.64 0.64v1.28c0 0.353-0.286 0.64-0.64 0.64zM14.035 9.706l-0.905-0.905c-0.25-0.25-0.25-0.655 0-0.905s0.655-0.25 0.905 0l0.905 0.905c0.25 0.25 0.25 0.655 0 0.905s-0.655 0.25-0.905 0zM15.36 16.525h3.2l-1.92 3.2h2.24l-4.159 5.119 1.152-3.839h-2.112l1.6-4.48z"></path>
</symbol>
<symbol id="icon-18" viewBox="0 0 32 32">
<path d="M20.462 20.781v-1.402c0.764-0.443 1.28-1.268 1.28-2.214 0-1.413-1.146-2.56-2.56-2.56-0.512 0-0.986 0.154-1.387 0.413-0.394-1.701-1.912-2.973-3.733-2.973-2.12 0-3.839 1.719-3.839 3.839 0 1.136 0.496 2.153 1.28 2.856v1.573c-1.529-0.886-2.56-2.535-2.56-4.429 0-2.827 2.292-5.119 5.119-5.119 1.921 0 3.593 1.060 4.469 2.625 0.212-0.036 0.428-0.066 0.651-0.066 2.121 0 3.84 1.719 3.84 3.84 0 1.671-1.069 3.089-2.56 3.616zM13.423 17.165c0.353 0 0.64 0.287 0.64 0.64v5.119c0 0.354-0.286 0.64-0.64 0.64s-0.64-0.286-0.64-0.64v-5.119c0-0.353 0.287-0.64 0.64-0.64zM15.982 18.445c0.353 0 0.64 0.286 0.64 0.64v5.119c0 0.353-0.287 0.64-0.64 0.64s-0.64-0.287-0.64-0.64v-5.119c0-0.354 0.287-0.64 0.64-0.64zM18.542 17.165c0.353 0 0.64 0.287 0.64 0.64v5.119c0 0.354-0.286 0.64-0.64 0.64s-0.64-0.286-0.64-0.64v-5.119c0-0.353 0.287-0.64 0.64-0.64z"></path>
</symbol>
<symbol id="icon-19" viewBox="0 0 32 32">
<path d="M20.462 20.781v-1.402c0.764-0.443 1.279-1.268 1.279-2.214 0-1.414-1.146-2.56-2.559-2.56-0.513 0-0.987 0.154-1.387 0.413-0.394-1.701-1.911-2.973-3.732-2.973-2.121 0-3.839 1.719-3.839 3.84 0 1.136 0.496 2.153 1.279 2.856v1.572c-1.529-0.886-2.559-2.535-2.559-4.429 0-2.828 2.292-5.119 5.119-5.119 1.921 0 3.593 1.060 4.469 2.625 0.212-0.036 0.428-0.066 0.651-0.066 2.121 0 3.839 1.719 3.839 3.84 0 1.671-1.069 3.089-2.559 3.616zM13.422 17.165c0.353 0 0.64 0.286 0.64 0.64v1.279c0 0.354-0.287 0.64-0.64 0.64s-0.64-0.286-0.64-0.64v-1.279c0-0.354 0.286-0.64 0.64-0.64zM13.422 21.004c0.353 0 0.64 0.286 0.64 0.64v1.279c0 0.354-0.287 0.64-0.64 0.64s-0.64-0.286-0.64-0.64v-1.279c0-0.354 0.286-0.64 0.64-0.64zM15.982 18.444c0.354 0 0.64 0.287 0.64 0.64v1.28c0 0.353-0.286 0.64-0.64 0.64s-0.639-0.287-0.639-0.64v-1.28c0-0.353 0.286-0.64 0.639-0.64zM15.982 22.284c0.354 0 0.64 0.286 0.64 0.639v1.28c0 0.354-0.286 0.64-0.64 0.64s-0.639-0.286-0.639-0.64v-1.28c0-0.353 0.286-0.639 0.639-0.639zM18.542 17.165c0.353 0 0.64 0.286 0.64 0.64v1.279c0 0.354-0.287 0.64-0.64 0.64s-0.64-0.286-0.64-0.64v-1.279c0-0.354 0.286-0.64 0.64-0.64zM18.542 21.004c0.353 0 0.64 0.286 0.64 0.64v1.279c0 0.354-0.287 0.64-0.64 0.64s-0.64-0.286-0.64-0.64v-1.279c0-0.354 0.286-0.64 0.64-0.64z"></path>
</symbol>
<symbol id="icon-20" viewBox="0 0 32 32">
<path d="M19.182 13.325c-0.223 0-0.438 0.029-0.651 0.066-0.876-1.565-2.548-2.625-4.469-2.625-2.827 0-5.119 2.292-5.119 5.119 0 1.917 1.056 3.586 2.617 4.463 0.088-0.404 0.285-0.789 0.599-1.102l0.018-0.018c-1.166-0.66-1.954-1.908-1.954-3.342 0-2.12 1.719-3.839 3.839-3.839 1.821 0 3.339 1.272 3.733 2.973 0.4-0.259 0.875-0.413 1.387-0.413 1.414 0 2.56 1.146 2.56 2.56 0 1.102-0.698 2.039-1.675 2.399 0.252 0.367 0.382 0.791 0.391 1.218 1.493-0.526 2.564-1.945 2.564-3.618-0.001-2.121-1.72-3.84-3.84-3.84zM13.742 19.472l-0.679 0.679c-0.375 0.375-0.375 0.982 0 1.357s0.983 0.375 1.357 0c0.375-0.375 0.375-0.982 0-1.357l-0.679-0.679zM15.982 22.031l-0.679 0.679c-0.375 0.375-0.375 0.983 0 1.357s0.982 0.375 1.357 0c0.375-0.374 0.375-0.982 0-1.357l-0.678-0.679zM18.222 19.472l-0.679 0.679c-0.375 0.375-0.375 0.982 0 1.357s0.982 0.375 1.357 0c0.375-0.375 0.375-0.982 0-1.357l-0.679-0.679z"></path>
</symbol>
<symbol id="icon-21" viewBox="0 0 32 32">
<path d="M19.182 13.325c-0.223 0-0.438 0.029-0.651 0.066-0.876-1.565-2.548-2.625-4.469-2.625-2.827 0-5.119 2.292-5.119 5.119 0 1.917 1.056 3.586 2.617 4.463 0.088-0.404 0.285-0.789 0.599-1.102l0.018-0.018c-1.166-0.66-1.954-1.908-1.954-3.342 0-2.12 1.719-3.839 3.839-3.839 1.821 0 3.339 1.272 3.733 2.973 0.4-0.259 0.875-0.413 1.387-0.413 1.414 0 2.56 1.146 2.56 2.56 0 1.102-0.698 2.039-1.675 2.399 0.252 0.367 0.382 0.791 0.391 1.218 1.493-0.526 2.564-1.945 2.564-3.618-0.001-2.121-1.72-3.84-3.84-3.84zM13.742 19.472l-0.679 0.679c-0.375 0.375-0.375 0.982 0 1.357s0.983 0.375 1.357 0c0.375-0.375 0.375-0.982 0-1.357l-0.679-0.679zM15.982 22.031l-0.679 0.679c-0.375 0.375-0.375 0.983 0 1.357s0.982 0.375 1.357 0c0.375-0.374 0.375-0.982 0-1.357l-0.678-0.679zM18.222 19.472l-0.679 0.679c-0.375 0.375-0.375 0.982 0 1.357s0.982 0.375 1.357 0c0.375-0.375 0.375-0.982 0-1.357l-0.679-0.679z"></path>
</symbol>
<symbol id="icon-22" viewBox="0 0 32 32">
<path d="M19.091 14.955l-0.627 0.362c0.060 0.218 0.095 0.447 0.095 0.684s-0.035 0.466-0.095 0.684l0.627 0.362c0.306 0.177 0.411 0.568 0.234 0.874s-0.568 0.411-0.874 0.234l-0.625-0.361c-0.321 0.326-0.729 0.565-1.186 0.683v0.724c0 0.353-0.287 0.64-0.64 0.64s-0.64-0.287-0.64-0.64v-0.724c-0.457-0.118-0.865-0.356-1.186-0.683l-0.625 0.361c-0.306 0.177-0.698 0.072-0.874-0.234s-0.072-0.698 0.234-0.874l0.627-0.362c-0.060-0.218-0.095-0.447-0.095-0.684s0.035-0.466 0.095-0.684l-0.627-0.362c-0.306-0.177-0.411-0.568-0.234-0.874s0.568-0.411 0.874-0.234l0.625 0.361c0.321-0.326 0.729-0.565 1.186-0.683v-0.724c0-0.353 0.287-0.64 0.64-0.64s0.64 0.287 0.64 0.64v0.724c0.457 0.118 0.865 0.356 1.186 0.683l0.625-0.361c0.306-0.177 0.698-0.072 0.874 0.234s0.072 0.698-0.234 0.874zM16 14.72c-0.707 0-1.28 0.573-1.28 1.28s0.573 1.28 1.28 1.28 1.28-0.573 1.28-1.28c0-0.707-0.573-1.28-1.28-1.28z"></path>
</symbol>
<symbol id="icon-23" viewBox="0 0 32 32">
<path d="M20.48 20.782v-1.402c0.764-0.443 1.28-1.268 1.28-2.215 0-1.413-1.146-2.559-2.56-2.559-0.512 0-0.987 0.154-1.387 0.413-0.394-1.701-1.912-2.973-3.733-2.973-2.121 0-3.839 1.719-3.839 3.84 0 1.136 0.496 2.153 1.28 2.856v1.573c-1.529-0.886-2.56-2.535-2.56-4.429 0-2.828 2.292-5.12 5.119-5.12 1.921 0 3.593 1.060 4.469 2.625 0.212-0.036 0.428-0.066 0.651-0.066 2.121 0 3.84 1.719 3.84 3.839 0 1.671-1.070 3.089-2.56 3.617zM13.44 18.445c0.354 0 0.64 0.287 0.64 0.64s-0.286 0.64-0.64 0.64c-0.353 0-0.64-0.286-0.64-0.64s0.286-0.64 0.64-0.64zM13.44 21.005c0.354 0 0.64 0.286 0.64 0.64s-0.286 0.639-0.64 0.639c-0.353 0-0.64-0.286-0.64-0.639s0.286-0.64 0.64-0.64zM16 19.725c0.353 0 0.64 0.286 0.64 0.64s-0.287 0.64-0.64 0.64c-0.354 0-0.64-0.287-0.64-0.64s0.286-0.64 0.64-0.64zM16 22.284c0.353 0 0.64 0.287 0.64 0.64s-0.287 0.64-0.64 0.64c-0.354 0-0.64-0.286-0.64-0.64s0.286-0.64 0.64-0.64zM18.56 18.445c0.354 0 0.64 0.287 0.64 0.64s-0.286 0.64-0.64 0.64c-0.353 0-0.64-0.286-0.64-0.64s0.287-0.64 0.64-0.64zM18.56 21.005c0.354 0 0.64 0.286 0.64 0.64s-0.286 0.639-0.64 0.639c-0.353 0-0.64-0.286-0.64-0.639s0.287-0.64 0.64-0.64z"></path>
</symbol>
<symbol id="icon-24" viewBox="0 0 32 32">
<path d="M19.091 14.955l-0.627 0.362c0.060 0.218 0.095 0.447 0.095 0.684s-0.035 0.466-0.095 0.684l0.627 0.362c0.306 0.177 0.411 0.568 0.234 0.874s-0.568 0.411-0.874 0.234l-0.625-0.361c-0.321 0.326-0.729 0.565-1.186 0.683v0.724c0 0.353-0.287 0.64-0.64 0.64s-0.64-0.287-0.64-0.64v-0.724c-0.457-0.118-0.865-0.356-1.186-0.683l-0.625 0.361c-0.306 0.177-0.698 0.072-0.874-0.234s-0.072-0.698 0.234-0.874l0.627-0.362c-0.060-0.218-0.095-0.447-0.095-0.684s0.035-0.466 0.095-0.684l-0.627-0.362c-0.306-0.177-0.411-0.568-0.234-0.874s0.568-0.411 0.874-0.234l0.625 0.361c0.321-0.326 0.729-0.565 1.186-0.683v-0.724c0-0.353 0.287-0.64 0.64-0.64s0.64 0.287 0.64 0.64v0.724c0.457 0.118 0.865 0.356 1.186 0.683l0.625-0.361c0.306-0.177 0.698-0.072 0.874 0.234s0.072 0.698-0.234 0.874zM16 14.72c-0.707 0-1.28 0.573-1.28 1.28s0.573 1.28 1.28 1.28 1.28-0.573 1.28-1.28c0-0.707-0.573-1.28-1.28-1.28z"></path>
</symbol>
<symbol id="icon-25" viewBox="0 0 32 32">
<path d="M19.839 20.948v-1.306c1.103-0.285 1.92-1.284 1.92-2.476 0-1.413-1.146-2.56-2.56-2.56-0.512 0-0.987 0.154-1.387 0.413-0.394-1.701-1.911-2.973-3.732-2.973-2.121 0-3.84 1.719-3.84 3.84 0 1.42 0.773 2.658 1.92 3.321v1.422c-1.875-0.76-3.199-2.596-3.199-4.744 0-2.827 2.292-5.12 5.119-5.12 1.921 0 3.593 1.060 4.469 2.625 0.212-0.036 0.428-0.066 0.651-0.066 2.12 0 3.839 1.719 3.839 3.839 0 1.903-1.384 3.477-3.2 3.783zM13.783 19.085c0.177-0.306 0.568-0.411 0.874-0.234l0.703 0.405v-0.811c0-0.353 0.287-0.64 0.64-0.64s0.64 0.287 0.64 0.64v0.811l0.702-0.406c0.306-0.176 0.698-0.072 0.874 0.234s0.072 0.698-0.234 0.874l-0.703 0.406 0.703 0.406c0.306 0.177 0.411 0.568 0.234 0.874s-0.568 0.411-0.874 0.234l-0.702-0.405v0.811c0 0.354-0.287 0.64-0.64 0.64s-0.64-0.286-0.64-0.64v-0.811l-0.702 0.406c-0.306 0.177-0.698 0.072-0.874-0.234s-0.072-0.698 0.234-0.874l0.702-0.406-0.702-0.406c-0.306-0.177-0.411-0.568-0.235-0.874zM16 21.005c0.353 0 0.64-0.287 0.64-0.64s-0.287-0.64-0.64-0.64-0.64 0.286-0.64 0.64c0 0.353 0.287 0.64 0.64 0.64z"></path>
</symbol>
<symbol id="icon-26" viewBox="0 0 32 32">
<path d="M20.48 20.781v-1.402c0.764-0.443 1.28-1.268 1.28-2.214 0-1.413-1.146-2.56-2.559-2.56-0.512 0-0.987 0.154-1.387 0.413-0.394-1.701-1.912-2.973-3.733-2.973-2.12 0-3.839 1.719-3.839 3.839 0 1.136 0.496 2.153 1.28 2.856v1.573c-1.528-0.886-2.559-2.535-2.559-4.429 0-2.827 2.292-5.119 5.119-5.119 1.921 0 3.593 1.060 4.469 2.625 0.212-0.036 0.428-0.066 0.651-0.066 2.12 0 3.839 1.719 3.839 3.84 0 1.671-1.069 3.089-2.56 3.616zM13.441 21.004c-0.353 0-0.32-0.286-0.32-0.639v-2.56c0-0.353-0.033-0.64 0.32-0.64s0.32 0.287 0.32 0.64v2.56c0 0.353 0.033 0.639-0.32 0.639zM13.441 22.284c0.353 0 0.64 0.287 0.64 0.64s-0.286 0.64-0.64 0.64-0.64-0.286-0.64-0.64c0-0.353 0.286-0.64 0.64-0.64zM16 22.284c-0.353 0-0.32-0.286-0.32-0.64v-2.559c0-0.354-0.033-0.64 0.32-0.64s0.32 0.286 0.32 0.64v2.559c0 0.354 0.033 0.64-0.32 0.64zM16 23.564c0.353 0 0.64 0.286 0.64 0.64s-0.286 0.64-0.64 0.64-0.64-0.287-0.64-0.64c0-0.354 0.286-0.64 0.64-0.64zM18.56 21.004c-0.353 0-0.32-0.286-0.32-0.639v-2.56c0-0.353-0.033-0.64 0.32-0.64s0.32 0.287 0.32 0.64v2.56c0 0.353 0.033 0.639-0.32 0.639zM18.56 22.284c0.353 0 0.64 0.287 0.64 0.64s-0.287 0.64-0.64 0.64-0.64-0.286-0.64-0.64c0-0.353 0.287-0.64 0.64-0.64z"></path>
</symbol>
<symbol id="icon-27" viewBox="0 0 32 32">
<path d="M23.359 22.924c-0.353 0-0.64-0.286-0.64-0.64s0.286-0.64 0.64-0.64 0.64 0.287 0.64 0.64c0 0.354-0.286 0.64-0.64 0.64zM20.479 20.781v-1.402c0.764-0.443 1.28-1.268 1.28-2.214 0-1.413-1.146-2.56-2.56-2.56-0.512 0-0.987 0.154-1.387 0.413-0.394-1.701-1.911-2.973-3.732-2.973-2.121 0-3.84 1.719-3.84 3.839 0 1.136 0.496 2.153 1.28 2.856v1.573c-1.529-0.886-2.56-2.535-2.56-4.429 0-2.827 2.292-5.119 5.119-5.119 1.921 0 3.593 1.060 4.469 2.625 0.212-0.036 0.428-0.066 0.651-0.066 2.12 0 3.839 1.719 3.839 3.84 0 1.671-1.069 3.089-2.56 3.616zM9.921 23.244c0.353 0 0.64 0.286 0.64 0.64s-0.286 0.64-0.64 0.64-0.64-0.287-0.64-0.64c0-0.354 0.286-0.64 0.64-0.64zM13.12 17.805c0-0.353-0.033-0.64 0.32-0.64s0.32 0.287 0.32 0.64v7.679h-0.64c0-0.707-0.573-1.28-1.28-1.28v-0.64c0.494 0 0.94 0.192 1.28 0.498v-6.258zM16 22.284c-0.353 0-0.32-0.286-0.32-0.64v-2.559c0-0.354-0.033-0.64 0.32-0.64s0.32 0.286 0.32 0.64v2.559c0 0.354 0.033 0.64-0.32 0.64zM16 23.564c0.353 0 0.64 0.286 0.64 0.64s-0.287 0.64-0.64 0.64-0.64-0.287-0.64-0.64c0-0.354 0.287-0.64 0.64-0.64zM18.56 17.165c0.353 0 0.32 0.287 0.32 0.64v5.765c0.583-0.779 1.511-1.286 2.56-1.286v0.64c-1.414 0-2.56 1.146-2.56 2.56h-0.64c0-0.087 0.006-0.173 0.013-0.258-0.017-0.107-0.013-0.238-0.013-0.382v-7.039c0-0.353-0.033-0.64 0.32-0.64z"></path>
</symbol>
<symbol id="icon-30" viewBox="0 0 32 32">
<path d="M16 21.717c-1.414 0-2.56-1.146-2.56-2.56 0-0.648 0.243-1.238 0.64-1.689v-5.349c0-1.060 0.86-1.92 1.92-1.92s1.92 0.86 1.92 1.92v5.349c0.397 0.451 0.639 1.041 0.639 1.689 0 1.414-1.146 2.56-2.559 2.56zM16.64 18.055v-5.936c0-0.353-0.287-0.64-0.64-0.64s-0.64 0.287-0.64 0.64v5.936c-0.38 0.222-0.64 0.63-0.64 1.102 0 0.707 0.573 1.28 1.28 1.28s1.28-0.573 1.28-1.28c0-0.472-0.26-0.881-0.64-1.102zM16 20.117c-0.53 0-0.96-0.43-0.96-0.96 0-0.418 0.268-0.769 0.64-0.901v-6.138c0-0.177 0.143-0.32 0.32-0.32s0.32 0.143 0.32 0.32v6.138c0.372 0.132 0.64 0.484 0.64 0.901 0 0.53-0.43 0.96-0.96 0.96z"></path>
</symbol>
<symbol id="icon-31" viewBox="0 0 32 32">
<path d="M16 21.759c-1.413 0-2.56-1.146-2.56-2.56 0-0.648 0.243-1.238 0.64-1.689v-5.35c0-1.060 0.86-1.92 1.92-1.92s1.92 0.86 1.92 1.92v5.35c0.397 0.451 0.64 1.041 0.64 1.689 0 1.414-1.146 2.56-2.56 2.56zM16.64 18.097v-5.937c0-0.353-0.287-0.64-0.64-0.64s-0.64 0.287-0.64 0.64v5.937c-0.381 0.222-0.64 0.63-0.64 1.102 0 0.707 0.573 1.28 1.28 1.28s1.28-0.573 1.28-1.28c0-0.473-0.259-0.881-0.64-1.102zM16 20.159c-0.53 0-0.96-0.43-0.96-0.96s0.43-0.96 0.96-0.96c0.53 0 0.96 0.43 0.96 0.96s-0.43 0.96-0.96 0.96z"></path>
</symbol>
<symbol id="icon-32" viewBox="0 0 32 32">
<path d="M21.12 16.64v0h-0.96c-0.354 0-0.64-0.286-0.64-0.64s0.286-0.64 0.64-0.64h0.96c0.353 0 0.64-0.287 0.64-0.64s-0.287-0.64-0.64-0.64c-0.354 0-0.64-0.287-0.64-0.64s0.286-0.64 0.64-0.64c0.044 0 0.087 0.004 0.129 0.013 0.999 0.068 1.791 0.891 1.791 1.907 0 1.060-0.859 1.919-1.919 1.919zM17.92 15.36h-7.039c-0.353 0-0.64 0.287-0.64 0.64s0.286 0.64 0.64 0.64h7.039c1.060 0 1.92 0.86 1.92 1.92 0 1.016-0.792 1.839-1.791 1.907-0.042 0.009-0.085 0.013-0.129 0.013-0.353 0-0.64-0.287-0.64-0.64s0.287-0.64 0.64-0.64c0.354 0 0.64-0.287 0.64-0.64s-0.286-0.64-0.64-0.64h-7.039c-1.060 0-1.92-0.86-1.92-1.92 0-1.016 0.792-1.839 1.791-1.907 0.042-0.008 0.085-0.013 0.129-0.013v0h7.039c0.354 0 0.64-0.287 0.64-0.64s-0.286-0.64-0.64-0.64c-0.353 0-0.64-0.286-0.64-0.64s0.287-0.64 0.64-0.64c0.044 0 0.087 0.005 0.129 0.013 0.999 0.068 1.791 0.891 1.791 1.907 0 1.060-0.86 1.92-1.92 1.92z"></path>
</symbol>
<symbol id="icon-33" viewBox="0 0 32 32">
<path d="M16 19.839c-2.121 0-3.84-1.719-3.84-3.839s1.719-3.84 3.84-3.84c0.242 0 0.477 0.025 0.706 0.068-0.042 0.184-0.067 0.375-0.067 0.572 0 1.414 1.146 2.56 2.56 2.56 0.197 0 0.388-0.024 0.572-0.067 0.043 0.229 0.068 0.465 0.068 0.707 0 2.12-1.719 3.839-3.839 3.839zM15.428 13.507c-1.138 0.26-1.988 1.276-1.988 2.493 0 1.413 1.146 2.56 2.56 2.56 1.217 0 2.233-0.85 2.493-1.988-1.553-0.289-2.776-1.512-3.065-3.066z"></path>
</symbol>
<symbol id="icon-34" viewBox="0 0 32 32">
<path d="M16 19.839c-2.121 0-3.84-1.719-3.84-3.839s1.719-3.84 3.84-3.84c0.242 0 0.477 0.025 0.706 0.068-0.042 0.184-0.067 0.375-0.067 0.572 0 1.414 1.146 2.56 2.56 2.56 0.197 0 0.388-0.024 0.572-0.067 0.043 0.229 0.068 0.465 0.068 0.707 0 2.12-1.719 3.839-3.839 3.839zM15.428 13.507c-1.138 0.26-1.988 1.276-1.988 2.493 0 1.413 1.146 2.56 2.56 2.56 1.217 0 2.233-0.85 2.493-1.988-1.553-0.289-2.776-1.512-3.065-3.066z"></path>
</symbol>
<symbol id="icon-35" viewBox="0 0 32 32">
<path d="M22.324 14.963v0c0.438 0.624 0.697 1.382 0.697 2.203 0 2.12-1.719 3.839-3.839 3.839-0.888 0-4.096 0-5.119 0-2.828 0-5.119-2.292-5.119-5.119s2.292-5.119 5.119-5.119c0.641 0 1.252 0.12 1.818 0.335v0c0.523-1.498 1.945-2.575 3.622-2.575 0.242 0 0.477 0.025 0.706 0.068-0.042 0.184-0.066 0.375-0.066 0.572 0 1.414 1.146 2.56 2.559 2.56 0.197 0 0.388-0.024 0.572-0.067 0.043 0.229 0.068 0.465 0.068 0.707-0 1.003-0.388 1.913-1.017 2.597zM10.223 15.885c0 2.121 1.719 3.839 3.839 3.839 1.157 0 4.153 0 5.119 0 1.414 0 2.56-1.146 2.56-2.559s-1.146-2.56-2.56-2.56c-0.512 0-0.987 0.154-1.387 0.413-0.394-1.701-1.911-2.973-3.732-2.973-2.121 0-3.839 1.719-3.839 3.84zM16.479 11.374c0 0 0.001 0 0.001 0s-0 0-0.001 0zM18.93 9.872c-0.928 0.212-1.656 0.931-1.896 1.848v0c0.614 0.439 1.127 1.009 1.498 1.67 0.212-0.036 0.428-0.066 0.651-0.066 0.838 0 1.611 0.272 2.242 0.727v0c0.275-0.313 0.475-0.694 0.572-1.114-1.553-0.289-2.776-1.511-3.065-3.065z"></path>
</symbol>
<symbol id="icon-36" viewBox="0 0 32 32">
<path d="M22.324 14.963v0c0.438 0.624 0.697 1.382 0.697 2.203 0 2.12-1.719 3.839-3.839 3.839-0.888 0-4.096 0-5.119 0-2.828 0-5.119-2.292-5.119-5.119s2.292-5.119 5.119-5.119c0.641 0 1.252 0.12 1.818 0.335v0c0.523-1.498 1.945-2.575 3.622-2.575 0.242 0 0.477 0.025 0.706 0.068-0.042 0.184-0.066 0.375-0.066 0.572 0 1.414 1.146 2.56 2.559 2.56 0.197 0 0.388-0.024 0.572-0.067 0.043 0.229 0.068 0.465 0.068 0.707-0 1.003-0.388 1.913-1.017 2.597zM10.223 15.885c0 2.121 1.719 3.839 3.839 3.839 1.157 0 4.153 0 5.119 0 1.414 0 2.56-1.146 2.56-2.559s-1.146-2.56-2.56-2.56c-0.512 0-0.987 0.154-1.387 0.413-0.394-1.701-1.911-2.973-3.732-2.973-2.121 0-3.839 1.719-3.839 3.84zM16.479 11.374c0 0 0.001 0 0.001 0s-0 0-0.001 0zM18.93 9.872c-0.928 0.212-1.656 0.931-1.896 1.848v0c0.614 0.439 1.127 1.009 1.498 1.67 0.212-0.036 0.428-0.066 0.651-0.066 0.838 0 1.611 0.272 2.242 0.727v0c0.275-0.313 0.475-0.694 0.572-1.114-1.553-0.289-2.776-1.511-3.065-3.065z"></path>
</symbol>
<symbol id="icon-37" viewBox="0 0 32 32">
<path d="M22.342 14.963v0c0.197 0.282 0.353 0.593 0.47 0.923h-1.398c-0.443-0.764-1.268-1.28-2.215-1.28-0.512 0-0.986 0.154-1.387 0.413-0.394-1.701-1.912-2.973-3.733-2.973-2.12 0-3.839 1.719-3.839 3.84v0h-1.28c0-2.827 2.292-5.119 5.119-5.119 0.641 0 1.252 0.12 1.818 0.335v0c0.523-1.499 1.945-2.575 3.622-2.575 0.242 0 0.477 0.025 0.707 0.068-0.042 0.184-0.067 0.375-0.067 0.572 0 1.414 1.146 2.559 2.56 2.559 0.197 0 0.388-0.024 0.572-0.066 0.043 0.229 0.068 0.465 0.068 0.706 0 1.003-0.388 1.913-1.017 2.597zM18.948 9.873c-0.928 0.212-1.656 0.931-1.896 1.848v0c0.613 0.439 1.127 1.009 1.497 1.671 0.212-0.036 0.428-0.066 0.651-0.066 0.838 0 1.611 0.271 2.242 0.727v0c0.275-0.314 0.475-0.694 0.571-1.114-1.553-0.29-2.776-1.512-3.065-3.066zM9.601 17.165h12.799c0.353 0 0.64 0.287 0.64 0.64s-0.287 0.64-0.64 0.64h-12.799c-0.353 0-0.64-0.287-0.64-0.64s0.287-0.64 0.64-0.64zM9.601 19.725h12.799c0.353 0 0.64 0.286 0.64 0.64s-0.287 0.64-0.64 0.64h-12.799c-0.353 0-0.64-0.287-0.64-0.64s0.287-0.64 0.64-0.64zM9.601 22.284h12.799c0.353 0 0.64 0.287 0.64 0.64s-0.287 0.64-0.64 0.64h-12.799c-0.353 0-0.64-0.287-0.64-0.64s0.287-0.64 0.64-0.64z"></path>
</symbol>
<symbol id="icon-38" viewBox="0 0 32 32">
<path d="M22.324 14.963v0c0.438 0.624 0.697 1.382 0.697 2.203 0 2.12-1.719 3.839-3.839 3.839-0.888 0-4.096 0-5.119 0-2.828 0-5.119-2.292-5.119-5.119s2.292-5.119 5.119-5.119c0.641 0 1.252 0.12 1.818 0.335v0c0.523-1.498 1.945-2.575 3.622-2.575 0.242 0 0.477 0.025 0.706 0.068-0.042 0.184-0.066 0.375-0.066 0.572 0 1.414 1.146 2.56 2.559 2.56 0.197 0 0.388-0.024 0.572-0.067 0.043 0.229 0.068 0.465 0.068 0.707-0 1.003-0.388 1.913-1.017 2.597zM10.223 15.885c0 2.121 1.719 3.839 3.839 3.839 1.157 0 4.153 0 5.119 0 1.414 0 2.56-1.146 2.56-2.559s-1.146-2.56-2.56-2.56c-0.512 0-0.987 0.154-1.387 0.413-0.394-1.701-1.911-2.973-3.732-2.973-2.121 0-3.839 1.719-3.839 3.84zM16.479 11.374c0 0 0.001 0 0.001 0s-0 0-0.001 0zM18.93 9.872c-0.928 0.212-1.656 0.931-1.896 1.848v0c0.614 0.439 1.127 1.009 1.498 1.67 0.212-0.036 0.428-0.066 0.651-0.066 0.838 0 1.611 0.272 2.242 0.727v0c0.275-0.313 0.475-0.694 0.572-1.114-1.553-0.289-2.776-1.511-3.065-3.065z"></path>
</symbol>
<symbol id="icon-39" viewBox="0 0 32 32">
<path d="M16 18.445c-0.354 0-0.64 0.286-0.64 0.64v5.119c0 0.353 0.286 0.64 0.64 0.64s0.64-0.287 0.64-0.64v-5.119c0-0.354-0.287-0.64-0.64-0.64zM18.56 17.165c-0.353 0-0.64 0.287-0.64 0.64v5.119c0 0.354 0.287 0.64 0.64 0.64s0.64-0.286 0.64-0.64v-5.119c0-0.353-0.286-0.64-0.64-0.64zM13.44 17.165c-0.353 0-0.64 0.287-0.64 0.64v5.119c0 0.354 0.287 0.64 0.64 0.64s0.64-0.286 0.64-0.64v-5.119c0-0.353-0.286-0.64-0.64-0.64zM23.359 12.365c0-0.241-0.025-0.477-0.068-0.706-0.184 0.042-0.375 0.067-0.572 0.067-1.414 0-2.56-1.146-2.56-2.56 0-0.197 0.024-0.388 0.066-0.572-0.229-0.043-0.464-0.068-0.706-0.068-1.677 0-3.099 1.077-3.622 2.575-0.565-0.215-1.177-0.335-1.818-0.335-2.827 0-5.119 2.292-5.119 5.119 0 1.894 1.031 3.544 2.56 4.429v-1.573c-0.784-0.703-1.28-1.72-1.28-2.856 0-2.12 1.719-3.839 3.839-3.839 1.821 0 3.339 1.271 3.733 2.973 0.4-0.26 0.875-0.413 1.387-0.413 1.414 0 2.56 1.146 2.56 2.56 0 0.947-0.515 1.772-1.28 2.214v1.402c1.49-0.527 2.56-1.945 2.56-3.616 0-0.82-0.26-1.579-0.698-2.202 0.63-0.684 1.017-1.594 1.017-2.597zM21.442 14.052c-0.631-0.456-1.404-0.727-2.242-0.727-0.223 0-0.438 0.029-0.651 0.066-0.37-0.662-0.884-1.232-1.497-1.671 0.24-0.917 0.968-1.636 1.896-1.848 0.289 1.554 1.512 2.776 3.065 3.066-0.096 0.42-0.297 0.8-0.571 1.114z"></path>
</symbol>
<symbol id="icon-40" viewBox="0 0 32 32">
<path d="M16 18.445c-0.354 0-0.64 0.286-0.64 0.64v5.119c0 0.353 0.286 0.64 0.64 0.64s0.64-0.287 0.64-0.64v-5.119c0-0.354-0.287-0.64-0.64-0.64zM18.56 17.165c-0.353 0-0.64 0.287-0.64 0.64v5.119c0 0.354 0.287 0.64 0.64 0.64s0.64-0.286 0.64-0.64v-5.119c0-0.353-0.286-0.64-0.64-0.64zM13.44 17.165c-0.353 0-0.64 0.287-0.64 0.64v5.119c0 0.354 0.287 0.64 0.64 0.64s0.64-0.286 0.64-0.64v-5.119c0-0.353-0.286-0.64-0.64-0.64zM23.359 12.365c0-0.241-0.025-0.477-0.068-0.706-0.184 0.042-0.375 0.067-0.572 0.067-1.414 0-2.56-1.146-2.56-2.56 0-0.197 0.024-0.388 0.066-0.572-0.229-0.043-0.464-0.068-0.706-0.068-1.677 0-3.099 1.077-3.622 2.575-0.565-0.215-1.177-0.335-1.818-0.335-2.827 0-5.119 2.292-5.119 5.119 0 1.894 1.031 3.544 2.56 4.429v-1.573c-0.784-0.703-1.28-1.72-1.28-2.856 0-2.12 1.719-3.839 3.839-3.839 1.821 0 3.339 1.271 3.733 2.973 0.4-0.26 0.875-0.413 1.387-0.413 1.414 0 2.56 1.146 2.56 2.56 0 0.947-0.515 1.772-1.28 2.214v1.402c1.49-0.527 2.56-1.945 2.56-3.616 0-0.82-0.26-1.579-0.698-2.202 0.63-0.684 1.017-1.594 1.017-2.597zM21.442 14.052c-0.631-0.456-1.404-0.727-2.242-0.727-0.223 0-0.438 0.029-0.651 0.066-0.37-0.662-0.884-1.232-1.497-1.671 0.24-0.917 0.968-1.636 1.896-1.848 0.289 1.554 1.512 2.776 3.065 3.066-0.096 0.42-0.297 0.8-0.571 1.114z"></path>
</symbol>
<symbol id="icon-41" viewBox="0 0 32 32">
<path d="M22.342 14.963v0c0.321 0.458 0.544 0.989 0.641 1.563h-0.001c0.035 0.209 0.058 0.421 0.058 0.64 0 2.121-1.719 3.84-3.84 3.84-0.089 0-0.207 0-0.34 0l1.147-1.412c1.018-0.338 1.753-1.296 1.753-2.428 0-0.221-0.031-0.435-0.084-0.64v0c-0.285-1.103-1.284-1.92-2.476-1.92-0.512 0-0.986 0.154-1.387 0.413-0.394-1.701-1.912-2.973-3.733-2.973-2.12 0-3.839 1.719-3.839 3.84 0 0.219 0.022 0.431 0.058 0.64h-0.004c0.244 1.455 1.308 2.631 2.7 3.042l-0.432 1.209c-1.889-0.586-3.306-2.237-3.557-4.251v0c-0.026-0.21-0.044-0.422-0.044-0.64 0-2.828 2.292-5.119 5.119-5.119 0.641 0 1.252 0.12 1.818 0.335v0c0.523-1.499 1.945-2.575 3.622-2.575 0.242 0 0.477 0.025 0.707 0.068-0.042 0.184-0.067 0.375-0.067 0.572 0 1.414 1.146 2.56 2.56 2.56 0.197 0 0.388-0.024 0.572-0.066 0.043 0.229 0.068 0.465 0.068 0.706 0 1.003-0.388 1.913-1.017 2.597zM18.948 9.873c-0.928 0.212-1.656 0.931-1.896 1.848v0c0.613 0.439 1.127 1.009 1.497 1.671 0.212-0.036 0.428-0.066 0.651-0.066 0.838 0 1.611 0.271 2.242 0.727v0c0.275-0.313 0.475-0.694 0.571-1.114-1.553-0.29-2.776-1.512-3.065-3.066zM15.36 16.525h3.2l-1.92 3.2h2.24l-4.16 5.119 1.152-3.839h-2.112l1.6-4.48z"></path>
</symbol>
<symbol id="icon-42" viewBox="0 0 32 32">
<path d="M22.342 14.963v0c0.321 0.458 0.544 0.989 0.641 1.563h-0.001c0.035 0.209 0.058 0.421 0.058 0.64 0 2.121-1.719 3.84-3.84 3.84-0.089 0-0.207 0-0.34 0l1.147-1.412c1.018-0.338 1.753-1.296 1.753-2.428 0-0.221-0.031-0.435-0.084-0.64v0c-0.285-1.103-1.284-1.92-2.476-1.92-0.512 0-0.986 0.154-1.387 0.413-0.394-1.701-1.912-2.973-3.733-2.973-2.12 0-3.839 1.719-3.839 3.84 0 0.219 0.022 0.431 0.058 0.64h-0.004c0.244 1.455 1.308 2.631 2.7 3.042l-0.432 1.209c-1.889-0.586-3.306-2.237-3.557-4.251v0c-0.026-0.21-0.044-0.422-0.044-0.64 0-2.828 2.292-5.119 5.119-5.119 0.641 0 1.252 0.12 1.818 0.335v0c0.523-1.499 1.945-2.575 3.622-2.575 0.242 0 0.477 0.025 0.707 0.068-0.042 0.184-0.067 0.375-0.067 0.572 0 1.414 1.146 2.56 2.56 2.56 0.197 0 0.388-0.024 0.572-0.066 0.043 0.229 0.068 0.465 0.068 0.706 0 1.003-0.388 1.913-1.017 2.597zM18.948 9.873c-0.928 0.212-1.656 0.931-1.896 1.848v0c0.613 0.439 1.127 1.009 1.497 1.671 0.212-0.036 0.428-0.066 0.651-0.066 0.838 0 1.611 0.271 2.242 0.727v0c0.275-0.313 0.475-0.694 0.571-1.114-1.553-0.29-2.776-1.512-3.065-3.066zM15.36 16.525h3.2l-1.92 3.2h2.24l-4.16 5.119 1.152-3.839h-2.112l1.6-4.48z"></path>
</symbol>
<symbol id="icon-43" viewBox="0 0 32 32">
<path d="M22.342 14.963v0c0.438 0.624 0.698 1.382 0.698 2.202 0 1.671-1.069 3.089-2.56 3.617v-1.402c0.764-0.443 1.28-1.268 1.28-2.215 0-1.413-1.146-2.56-2.56-2.56-0.512 0-0.987 0.154-1.387 0.413-0.394-1.701-1.912-2.973-3.733-2.973-2.12 0-3.839 1.719-3.839 3.84 0 1.136 0.496 2.153 1.28 2.856v1.573c-1.528-0.886-2.56-2.535-2.56-4.429 0-2.827 2.292-5.12 5.119-5.12 0.641 0 1.252 0.12 1.818 0.335v0c0.523-1.498 1.945-2.575 3.622-2.575 0.242 0 0.477 0.025 0.707 0.068-0.042 0.184-0.067 0.376-0.067 0.572 0 1.414 1.146 2.559 2.56 2.559 0.197 0 0.388-0.024 0.572-0.066 0.043 0.229 0.068 0.465 0.068 0.706 0 1.004-0.388 1.914-1.018 2.598zM18.948 9.873c-0.928 0.212-1.656 0.931-1.896 1.848v0c0.613 0.439 1.127 1.009 1.497 1.671 0.212-0.036 0.428-0.066 0.651-0.066 0.838 0 1.611 0.271 2.242 0.727v0c0.275-0.314 0.476-0.693 0.572-1.114-1.553-0.29-2.776-1.512-3.065-3.066zM13.783 19.085c0.177-0.306 0.568-0.411 0.874-0.234l0.703 0.406v-0.811c0-0.353 0.287-0.64 0.64-0.64s0.64 0.287 0.64 0.64v0.811l0.703-0.406c0.306-0.176 0.698-0.072 0.874 0.234s0.072 0.698-0.234 0.874l-0.702 0.406 0.703 0.406c0.306 0.177 0.411 0.568 0.234 0.874s-0.568 0.411-0.874 0.234l-0.703-0.405v0.811c0 0.354-0.287 0.64-0.64 0.64s-0.64-0.286-0.64-0.64v-0.811l-0.703 0.406c-0.306 0.177-0.698 0.072-0.874-0.234s-0.072-0.698 0.234-0.874l0.703-0.406-0.703-0.406c-0.306-0.177-0.411-0.568-0.234-0.875zM16 21.005c0.353 0 0.64-0.287 0.64-0.64s-0.287-0.64-0.64-0.64c-0.353 0-0.64 0.286-0.64 0.64s0.286 0.64 0.64 0.64z"></path>
</symbol>
<symbol id="icon-44" viewBox="0 0 32 32">
<path d="M22.341 14.963v0c0.438 0.624 0.698 1.382 0.698 2.202 0 1.671-1.069 3.089-2.559 3.617v-1.402c0.764-0.443 1.28-1.268 1.28-2.215 0-1.413-1.146-2.56-2.56-2.56-0.512 0-0.987 0.154-1.387 0.413-0.394-1.701-1.911-2.973-3.732-2.973-2.121 0-3.839 1.719-3.839 3.84 0 1.136 0.496 2.153 1.28 2.856v1.573c-1.529-0.886-2.56-2.535-2.56-4.429 0-2.827 2.292-5.12 5.119-5.12 0.641 0 1.252 0.12 1.818 0.335v0c0.523-1.498 1.945-2.575 3.622-2.575 0.242 0 0.477 0.025 0.706 0.068-0.042 0.184-0.066 0.376-0.066 0.572 0 1.414 1.146 2.559 2.559 2.559 0.197 0 0.388-0.024 0.572-0.066 0.043 0.229 0.068 0.465 0.068 0.706 0 1.004-0.388 1.914-1.018 2.598zM18.947 9.873c-0.928 0.212-1.656 0.931-1.896 1.848 0.614 0.439 1.127 1.009 1.498 1.671 0.212-0.036 0.428-0.066 0.651-0.066 0.837 0 1.611 0.271 2.242 0.727v0c0.275-0.314 0.475-0.693 0.572-1.114-1.553-0.29-2.776-1.512-3.066-3.066zM13.44 18.445c0.353 0 0.64 0.287 0.64 0.64s-0.287 0.64-0.64 0.64-0.64-0.286-0.64-0.64c0-0.353 0.286-0.64 0.64-0.64zM13.44 21.005c0.353 0 0.64 0.286 0.64 0.64s-0.287 0.639-0.64 0.639-0.64-0.286-0.64-0.639c0-0.354 0.286-0.64 0.64-0.64zM16 19.725c0.353 0 0.64 0.286 0.64 0.64s-0.287 0.64-0.64 0.64-0.64-0.287-0.64-0.64c0-0.354 0.286-0.64 0.64-0.64zM16 22.284c0.353 0 0.64 0.287 0.64 0.64s-0.287 0.64-0.64 0.64-0.64-0.286-0.64-0.64c0-0.353 0.286-0.64 0.64-0.64zM18.56 18.445c0.353 0 0.64 0.287 0.64 0.64s-0.287 0.64-0.64 0.64-0.64-0.286-0.64-0.64c0-0.353 0.287-0.64 0.64-0.64zM18.56 21.005c0.353 0 0.64 0.286 0.64 0.64s-0.287 0.639-0.64 0.639-0.64-0.286-0.64-0.639c0-0.354 0.287-0.64 0.64-0.64z"></path>
</symbol>
</defs>
</svg>
